<svg xmlns="http://www.w3.org/2000/svg" xmlns:xlink="http://www.w3.org/1999/xlink" width="275" height="100" viewBox="0 0 275 100">
  <defs>
    <polygon id="mainstreet-renewal-a" points=".018 .022 9.859 .022 9.859 11.865 .018 11.865"/>
  </defs>
  <g fill="none" fill-rule="evenodd" transform="translate(55 30)">
    <path fill="#949DB4" d="M21.7718537,9.75609756e-05 C22.9028293,0.268390244 24.066,0.356439024 25.1928293,0.664243902 C28.5774634,1.58912195 31.5164878,3.26985366 34.073561,5.75985366 C33.7752683,5.8742439 33.5186829,5.8037561 33.266,5.78643902 C28.9333171,5.48765854 24.7413659,6.06058537 20.7613659,7.85521951 C17.6686829,9.24960976 15.0999024,11.3793659 12.6789268,13.7027805 C11.7006341,14.6418049 10.7669756,15.6242439 9.88917073,16.6583902 C9.70746341,16.8725366 9.53502439,17.0949756 9.25746341,17.4386341 C9.97990244,17.4386341 10.5374634,17.459122 11.0928293,17.4318049 C11.5057561,17.4113171 11.690878,17.4942439 11.686,17.9761951 C11.6606341,20.4798537 11.6742927,22.9842439 11.6742927,25.499122 C11.3730732,25.5703415 11.2103902,25.3405854 11.0233171,25.2100976 C7.66185366,22.864 5.05697561,19.8142439 3.07307317,16.2793659 C1.69014634,13.8149756 1.80234146,11.2266829 3.41941463,8.85521951 C6.88234146,3.77741463 11.6999024,0.869365854 17.8218537,0.126439024 C17.930878,0.113268293 18.050878,0.13302439 18.1045366,9.75609756e-05 L21.7718537,9.75609756e-05 Z"/>
    <g transform="translate(153.17 8.374)">
      <mask id="mainstreet-renewal-b" fill="#fff">
        <use xlink:href="#mainstreet-renewal-a"/>
      </mask>
      <path fill="#949DB4" d="M9.85943902,2.45914634 C8.86407317,2.45817073 7.8674878,2.48670732 6.87407317,2.44353659 C6.36065854,2.42134146 6.22480488,2.57597561 6.22919512,3.08207317 C6.25358537,5.76573171 6.21773171,8.44987805 6.25773171,11.1330488 C6.267,11.7559756 6.07480488,11.9147561 5.50065854,11.8530488 C5.07578049,11.807439 4.63919512,11.8128049 4.21309756,11.8523171 C3.73260976,11.8969512 3.60992683,11.722561 3.61407317,11.2528049 C3.63602439,8.56914634 3.60187805,5.885 3.64114634,3.20158537 C3.65065854,2.56695122 3.46309756,2.40231707 2.85870732,2.44329268 C2.09309756,2.495 1.32090244,2.44109756 0.552365854,2.46207317 C0.19797561,2.47158537 0.0460243902,2.40304878 0.0340731707,1.99426829 C-0.023,0.0425609756 -0.036902439,0.0457317073 1.92139024,0.0423170732 C4.5674878,0.0379268293 7.21334146,0.028902439 9.85943902,0.0218292683 L9.85943902,2.45914634 Z" mask="url(#mainstreet-renewal-b)"/>
    </g>
    <path fill="#949DB4" d="M25.1177561,39.0847561 C25.9623902,37.6654878 26.6772683,36.1971951 27.2123902,34.6440244 C28.3087317,31.4615854 28.7714146,28.1745122 28.8353171,24.8267073 C28.8787317,22.549878 28.875561,20.2720732 28.8650732,17.995 C28.863122,17.552561 28.9797073,17.3971951 29.4333659,17.4291463 C29.9887317,17.4686585 30.5487317,17.4386585 31.3082439,17.4386585 C28.3911707,13.9864634 25.2762927,11.0332927 21.4836098,8.70792683 C22.8333659,8.07207317 24.2060488,7.68353659 25.6070244,7.39329268 C27.7153171,6.95670732 29.8484878,6.66304878 31.9999512,6.87426829 C34.7089756,7.14012195 36.6614146,8.57939024 37.880439,10.9881707 C41.585561,18.3089024 40.3236098,27.3318293 34.7575122,33.3828049 C32.2577561,36.100122 29.2438537,38.0052439 25.6889756,39.0457317 C25.5599512,39.0835366 25.4284878,39.115 25.2962927,39.1386585 C25.258,39.1457317 25.212878,39.115 25.1177561,39.0847561"/>
    <path fill="#949DB4" d="M.813731707 14.566C1.65641463 16.0606341 2.48763415 17.4723415 3.42373171 18.8189268 5.60958537 21.9638049 8.14909756 24.7596585 11.4769024 26.7391707 16.3222683 29.6216098 21.4015366 29.9201463 26.6559268 27.9918537 26.9508049 27.883561 27.2417805 27.7650244 27.6022683 27.6252683 27.4086098 29.713561 27.0234878 31.706 26.4264146 33.6633171 25.8915366 35.416 25.1608049 37.0323415 23.6817805 38.2216098 21.6949512 39.8189268 19.4171463 40.0867317 17.0147073 39.6489268 8.99763415 38.1881951 3.60104878 33.6247805.975439024 25.9267317-.269926829 22.2755122-.284317073 18.5399024.713 14.8081951.727390244 14.7547805.755439024 14.7052683.813731707 14.566M60.5747317 11.4606585C59.2318049 13.3265122 57.886439 15.1957805 56.5100976 17.1079756 55.1249756 15.202122 53.7832683 13.3557805 52.4413171 11.5091951 52.3966829 11.5240732 52.3520488 11.5387073 52.3074146 11.5533415L52.3074146 12.2611463C52.3074146 14.6752927 52.281561 17.0896829 52.3247317 19.5028537 52.3359512 20.1291951 52.1398537 20.281878 51.5649756 20.2272439 51.071561 20.1806585 50.569122 20.1979756 50.0725366 20.2238293 49.7076585 20.2428537 49.620577 20.1013902 49.621561 19.7560244 49.6320488 15.6726098 49.6327805 11.5891951 49.620577 7.50578049 49.6193659 7.13602439 49.751561 7.01602439 50.0930244 7.05895122 50.1376585 7.06456098 50.1847317 7.067 50.2283902 7.05870732 51.9937561 6.72407317 53.1708293 7.36163415 54.006439 8.99382927 54.686439 10.321878 55.6605854 11.5001707 56.5530244 12.817 57.7005854 11.1089512 58.8327805 9.48992683 59.8857073 7.82114634 60.259122 7.22919512 60.6632683 6.97480488 61.3520488 7.04895122 61.8666829 7.10407317 62.3935122 7.08456098 62.9118049 7.05212195 63.3310732 7.02578049 63.4513171 7.1674878 63.4474146 7.58602439 63.4276585 9.77407317 63.4383902 11.9626098 63.4383902 14.1509024 63.4383902 15.9782195 63.4213171 17.8060244 63.4496098 19.6328537 63.4571707 20.1196829 63.2981463 20.2565122 62.8347317 20.2255366 62.1620488 20.1801707 61.2759512 20.4401707 60.868878 20.1038293 60.4396098 19.7491951 60.7459512 18.834561 60.7403415 18.1660244 60.7225366 16.0682195 60.7347317 13.9699268 60.7300976 11.871878 60.7298537 11.7489512 60.7952195 11.5989512 60.5747317 11.4606585M91.5996341 15.6497561C91.5996341 13.2990244 91.6130488 11.1563415 91.5889024 9.01414634 91.5837805 8.54829268 91.6986585 8.35585366 92.1862195 8.41121951 92.8303659 8.48487805 93.6947561 8.1304878 94.0654878 8.55682927 94.3837805 8.92268293 94.1696341 9.75926829 94.1703659 10.387561 94.175 13.4558537 94.1606098 16.5241463 94.1845122 19.5921951 94.1881707 20.0870732 94.0623171 20.1829268 93.5630488 20.2439024 92.3730488 20.3890244 91.6342683 19.9558537 90.9479268 18.9736585 89.5032927 16.9068293 87.9135366 14.9412195 86.3806098 12.9304878 86.1303659 13.0480488 86.2408537 13.2556098 86.2403659 13.4090244 86.2313415 15.4619512 86.2132927 17.5153659 86.2476829 19.5678049 86.2567073 20.1178049 86.0842683 20.2765854 85.5628049 20.2260976 85.1367073 20.1846341 84.7006098 20.1856098 84.2745122 20.2260976 83.7981707 20.2714634 83.6706098 20.1095122 83.6737232 19.6334146 83.695 16.34 83.6847561 13.0460976 83.6847561 9.75219512 83.6847561 8.41658537 83.687439 8.46487805 85.0208537 8.39804878 85.7789024 8.36 86.245 8.5895122 86.6979268 9.20780488 88.2530488 11.33 89.8791463 13.4007317 91.5996341 15.6497561M122.863683 14.1576341C123.323195 14.1261707 123.865878 14.208122 124.405634 14.0966585 125.38222 13.8944634 125.863195 13.3142195 125.829537 12.3525122 125.798805 11.4744634 125.231488 10.9134878 124.261488 10.8161707 123.858317 10.7756829 123.452707 10.728122 123.048805 10.7320244 122.46539 10.7376341 121.707829 10.4825122 121.343927 10.830561 120.946122 11.2115366 121.221976 11.9808049 121.213927 12.5788537 121.193195 14.1576341 121.207098 14.1576341 122.863683 14.1576341M128.84661 20.2176341C127.863439 20.2176341 127.00539 20.2027561 126.148317 20.2249512 125.820024 20.2334878 125.671488 20.0669024 125.514171 19.825439 124.935878 18.9390976 124.311 18.0815366 123.762951 17.1773902 123.42539 16.620561 123.045634 16.3686098 122.358561 16.4103171 121.210268 16.4803171 121.207098 16.4293415 121.207098 17.5525122 121.207098 18.2512927 121.173439 18.9522683 121.218317 19.648122 121.250024 20.1434878 121.065878 20.2632439 120.608805 20.2259268 120.137098 20.1876341 119.658317 20.1944634 119.18539 20.2247073 118.768561 20.2510488 118.602951 20.1561707 118.60584 19.683 118.627829 16.0988537 118.616854 12.5147073 118.620512 8.93056098 118.620756 8.70421951 118.519537 8.40373171 118.94222 8.41568293 121.019537 8.47568293 123.104902 8.26397561 125.174415 8.53129268 126.954415 8.76129268 128.13661 9.8627561 128.404659 11.4222683 128.750512 13.4351951 128.096366 14.9388537 126.421244 15.8039756 125.978073 16.033 126.079293 16.1856829 126.289049 16.4866585 127.124171 17.6839756 127.941488 18.8937317 128.84661 20.2176341M101.002512 6.8945122C102.765927 6.89256098 104.209829 7.32792683 105.53178 8.19304878 105.840317 8.395 105.923732 8.5647561 105.682024 8.88182927 105.313 9.3652439 105.08178 10.0557317 104.603 10.3252439 104.087634 10.6154878 103.615927 9.90695122 103.085927 9.71402439 102.225683 9.40060976 101.377146 9.12378049 100.44861 9.31817073 99.8015366 9.45353659 99.2912927 9.76256098 99.215439 10.4771951 99.1420244 11.1664634 99.5669024 11.5576829 100.146659 11.8157317 100.955195 12.1757317 101.824951 12.3379268 102.668854 12.5828049 103.342512 12.7784146 104.000317 13.0079268 104.617878 13.342561 106.001537 14.0920732 106.489098 15.3003659 106.353244 16.7976829 106.198366 18.5103659 105.257634 19.6703659 103.626171 20.1328049 100.969585 20.8854878 98.5398293 20.2854878 96.3339756 18.6679268 96.0659268 18.4713415 96.0259268 18.3140244 96.2725122 18.092561 96.3059268 18.062561 96.3312927 18.0237805 96.3603171 17.9891463 96.7547073 17.5245122 97.067878 16.8440244 97.5669024 16.6571951 98.045439 16.4779268 98.5090976 17.1776829 99.0195854 17.4257317 100.018854 17.9118293 101.053976 18.1589024 102.16739 18.0223171 102.992024 17.9210976 103.564951 17.4818293 103.666659 16.8706098 103.777146 16.2059756 103.439098 15.7286585 102.581293 15.3676829 101.724951 15.0076829 100.811049 14.8364634 99.9242195 14.5754878 99.6220244 14.4862195 99.3261707 14.3732927 99.0322683 14.2589024 97.1303171 13.5193902 96.3795854 12.4162195 96.5173902 10.5728049 96.6515366 8.78012195 97.827878 7.44695122 99.6395854 7.04695122 100.147634 6.9347561 100.661293 6.84890244 101.002512 6.8945122M142.597854 14.3168537C142.597854 12.5349024 142.611268 10.7529512 142.588585 8.9712439 142.582732 8.52782927 142.71322 8.40295122 143.160293 8.4065322 145.762 8.42758537 148.364195 8.42709756 150.965902 8.40709756 151.417122 8.40368293 151.531756 8.53880488 151.53322 8.98026829 151.538829 10.7175854 151.555171 10.7175854 149.851512 10.7175854 148.494195 10.7175854 147.13639 10.7317317 145.779317 10.7092927 145.354439 10.7024634 145.149317 10.7946585 145.199073 11.2651463 145.262244 11.8639268 144.955659 12.6356341 145.323463 13.0231951 145.666146 13.3846585 146.43761 13.1202683 147.019805 13.1290488 148.105415 13.145878 149.192 13.1483171 150.277366 13.126122 150.655902 13.1183171 150.773463 13.2244146 150.782488 13.6141707 150.824683 15.4397805 150.83761 15.4395366 149.045902 15.4395366 147.959805 15.4395366 146.873463 15.4536829 145.788098 15.4322195 145.382976 15.4244146 145.148341 15.4836829 145.198341 15.9695366 145.262488 16.5919756 144.944439 17.3988049 145.320049 17.7978293 145.702732 18.2049024 146.518098 17.9136829 147.142976 17.9241707 148.454683 17.946122 149.767366 17.9407561 151.079317 17.9249024 151.453463 17.9202683 151.634927 17.9683171 151.639561 18.426122 151.658829 20.2178293 151.678585 20.2178293 149.87639 20.2178293 147.63639 20.2175854 145.396634 20.205878 143.156878 20.2276981 142.711024 20.2319756 142.581512 20.1092927 142.58761 19.6624634 142.612488 17.8807561 142.597854 16.0988049 142.597854 14.3168537M130.997488 14.2913659C130.997488 12.5089268 131.010171 10.7262439 130.98822 8.94404878 130.982854 8.52795122 131.103829 8.406 131.520902 8.40863982 134.146024 8.4255122 136.771634 8.42380488 139.397 8.40990244 139.785293 8.40770732 139.945293 8.47502439 139.950415 8.92087805 139.970659 10.7177073 139.988707 10.7174634 138.193829 10.7177073 136.83578 10.7177073 135.477732 10.7323415 134.120415 10.7091707 133.699195 10.7018537 133.589927 10.8406341 133.582854 11.2503902 133.550659 13.1342927 133.537732 13.1340488 135.405293 13.1340488 136.491634 13.1340488 137.57822 13.1496585 138.664317 13.1257561 139.047244 13.1174634 139.18139 13.228439 139.155049 13.6147805 139.115293 14.1957561 139.339439 14.956 139.04822 15.3150244 138.739927 15.6955122 137.947244 15.4230732 137.367244 15.4340488 136.326756 15.4538049 135.283585 15.4745366 134.244805 15.4255122 133.680902 15.3991707 133.537244 15.6006341 133.584561 16.1147805 133.623829 16.5399024 133.617732 16.9733171 133.58578 17.3996585 133.554317 17.8196585 133.713585 17.9423415 134.125293 17.9381951 135.867976 17.9199024 137.610659 17.9447805 139.353098 17.9218537 139.846756 17.9152683 140.067244 17.9920976 140.054073 18.5745366 140.017 20.2169756 140.04822 20.2177073 138.391634 20.2177073 136.151146 20.2177073 133.910171 20.203561 131.670171 20.228439 131.159683 20.2342927 130.970415 20.1294146 130.982854 19.5706341 131.02261 17.8116098 130.997488 16.051122 130.997488 14.2913659M70.990122 11.4987561C70.4791463 12.7346098 70.037439 13.8119268 69.587439 14.8860732 69.4762195 15.151439 69.4740244 15.2958293 69.835 15.2875366 70.602561 15.2694878 71.3710976 15.2707073 72.1389024 15.2863171 72.5110976 15.294122 72.4930488 15.1129024 72.3910976 14.8668049 71.9447561 13.7894878 71.4957317 12.7133902 70.990122 11.4987561M64.7647561 20.2172927C65.4491463 18.5994878 66.0928049 17.0711951 66.7418293 15.5450976 67.6837805 13.3304634 68.6432927 11.1231463 69.5620732 8.8992439 69.739878 8.4685122 69.9615854 8.3187561 70.4137805 8.35631707 71.0191463 8.40680488 71.7552439 8.19534146 72.2015854 8.47119512 72.6118293 8.72509756 72.719878 9.47290244 72.9489024 10.0082683 74.3106098 13.1921707 75.659878 16.381439 77.0369512 19.5587561 77.265 20.0843659 77.2171951 20.2816829 76.6006098 20.223878 75.9289024 20.1611951 75.0964634 20.4811951 74.620122 20.1046098 74.1564634 19.7382683 74.0047561 18.9392439 73.7976829 18.303878 73.6145122 17.7429024 73.3242683 17.5543659 72.7245122 17.5807073 71.4830488 17.6353415 70.2367073 17.613878 68.9930488 17.5872927 68.6120732 17.5792439 68.4245122 17.696561 68.3003659 18.0529024 68.1008537 18.6253415 67.8320732 19.1733902 67.6264634 19.744122 67.5028049 20.0875366 67.3279268 20.2448537 66.9384146 20.226561 66.2457317 20.1936341 65.5508537 20.2172927 64.7647561 20.2172927M111.848293 8.4167561C113.273659 8.4167561 114.699024 8.43358537 116.123659 8.407 116.572927 8.39870732 116.80122 8.48090244 116.740488 8.987 116.669268 9.58236585 116.996341 10.382122 116.601463 10.7265122 116.263659 11.0213902 115.484146 10.8050488 114.900732 10.832122 114.34122 10.8579756 113.619756 10.5909024 113.266098 10.9365122 112.910976 11.2835854 113.161951 12.0052927 113.15878 12.5613902 113.145366 14.929439 113.140732 17.2977317 113.163902 19.6655366 113.168293 20.1126098 113.04439 20.2616341 112.600488 20.2313902 112.105366 20.1977317 111.603415 20.1938293 111.10878 20.2326098 110.637561 20.269439 110.496829 20.1187073 110.500976 19.6379756 110.524146 16.9543171 110.491707 14.2701707 110.527317 11.587 110.535366 10.9672439 110.372195 10.7699268 109.74878 10.8157805 108.983902 10.8723659 108.21 10.801878 107.442927 10.8401707 107.006829 10.8616341 106.896585 10.7116341 106.926341 10.3065122 106.970732 9.70407317 106.742927 8.91358537 107.047317 8.54431707 107.37 8.15334146 108.191707 8.43456098 108.79439 8.42236585 109.811951 8.40163415 110.830244 8.4167561 111.848293 8.4167561M78.5634878 14.3546098C78.5634878 12.5529024 78.5747073 10.7509512 78.5549512 8.9494878 78.5503171 8.54631707 78.6469024 8.38143902 79.0776341 8.4092439 79.7512927 8.45290244 80.6315366 8.19460976 81.0476341 8.5294878 81.4890976 8.88460976 81.1817805 9.79802439 81.185439 10.4655854 81.2010488 13.5060732 81.180561 16.546561 81.2037317 19.5870488 81.2076341 20.0833902 81.0942195 20.2775366 80.5712927 20.2277805 80.0788537 20.1809512 79.5764146 20.1921707 79.0817805 20.2255854 78.6603171 20.253878 78.5486098 20.1058293 78.5539756 19.6921707 78.5764146 17.9131463 78.5634878 16.133878 78.5634878 14.3546098M92.3801707 31.1087317C92.8699268 29.6926341 93.3091951 28.4260488 93.7460244 27.1587317 94.024561 26.3501951 94.3109024 25.5440976 94.5713902 24.7297073 94.6723659 24.4140976 94.8030976 24.2443415 95.179439 24.2506829 95.6057805 24.2577561 95.7360244 24.3123902 95.5655366 24.7809268 94.6660244 27.2548293 93.8011463 29.7409268 92.927 32.2238537 92.8391951 32.473122 92.7360244 32.6433659 92.4101707 32.6345854 92.0904146 32.6260488 91.9323659 32.5345854 91.8272439 32.218 91.154561 30.190439 90.4589512 28.170439 89.7704146 26.1460488 89.4889512 26.2187317 89.5299268 26.4745854 89.4709024 26.6450732 88.8448049 28.4516585 88.2387073 30.2653171 87.6182195 32.0740976 87.5301707 32.3301951 87.5204146 32.6306829 87.082122 32.6409268 86.6533415 32.6511707 86.5506585 32.4238537 86.4399268 32.1106829 85.5840732 29.6923902 84.7157805 27.2784878 83.8755366 24.8550732 83.8204146 24.6967805 83.4699268 24.3653171 83.9196829 24.2894634 84.2155366 24.2394634 84.6474878 24.0592195 84.8204146 24.5953171 85.1587073 25.6445854 85.532122 26.6826341 85.891878 27.7248293 86.2633415 28.800439 86.6360244 29.8758049 87.0667561 31.1206829 87.611878 29.4682439 88.1038293 27.9794634 88.5938293 26.4901951 88.7904146 25.8916585 88.9867561 25.292878 89.1750488 24.6916585 89.2613902 24.4172683 89.3601707 24.2265366 89.7230976 24.2345854 90.0791951 24.2426341 90.1689512 24.4158049 90.262122 24.702878 90.9150488 26.7145854 91.5848049 28.7209268 92.2496829 30.7289756 92.2738293 30.8026341 92.2999268 30.875561 92.3801707 31.1087317M72.55 30.6579756C72.55 28.7038293 72.5592683 26.7496829 72.542439 24.7957805 72.5387805 24.3982195 72.625122 24.2213902 73.065122 24.251878 73.3714634 24.2733415 73.4482927 24.3913902 73.4478072 24.6623659 73.4431707 27.1640732 73.445122 29.6657805 73.4431707 32.1674878 73.4429268 32.3191951 73.475122 32.509439 73.2434146 32.5233415 72.9553659 32.5406585 72.6721951 32.5826098 72.455122 32.2830976 72.0585366 31.7357805 71.6280488 31.2128537 71.2090244 30.682122 69.9817073 29.1265122 68.7531707 27.572122 67.5231707 26.0150488 67.2821951 26.1506585 67.384878 26.3526098 67.3839024 26.5089512 67.375122 28.334561 67.3692683 30.1601707 67.385122 31.9855366 67.3882927 32.3687073 67.3231707 32.5467561 66.8763415 32.5492163 66.4090244 32.551878 66.4465854 32.2987073 66.4470732 31.9930976 66.4514634 29.6489512 66.4434146 27.3050488 66.4590244 24.9611463 66.4604878 24.7311463 66.2702439 24.3679756 66.662439 24.2811463 67.0158537 24.2033415 67.3331707 24.2535854 67.6060976 24.6130976 68.6831707 26.0311463 69.8029268 27.4165122 70.9070732 28.8140732 71.4078049 29.4482195 71.9085366 30.082122 72.4092683 30.7162683L72.55 30.6579756zM50.5825854 26.8278293C50.5825854 27.2556341 50.5847805 27.6839268 50.5816098 28.1117317 50.5799024 28.3253902 50.5813967 28.5370976 50.8767317 28.5329512 51.9120976 28.518561 52.9586829 28.6488049 53.976 28.3736829 54.7742927 28.1578293 55.3040488 27.4631951 55.2703902 26.7544146 55.2318537 25.9495366 54.6445366 25.3268537 53.7455122 25.2095366 53.2552683 25.1453902 52.7538049 25.1536829 52.2574634 25.1517317 50.5820976 25.1453902 50.5820976 25.1492927 50.5825854 26.8278293M56.4352683 32.4580732C55.7123415 32.653439 55.1981951 32.5480732 54.8364878 31.9063659 54.606 31.4978293 54.2757561 31.1456341 53.9925854 30.766122 52.9003902 29.3012439 52.901122 29.3122195 51.0777073 29.3597805 50.701122 29.3695366 50.5591707 29.4627073 50.5738049 29.8551463 50.6016098 30.5980732 50.5645366 31.3431951 50.5889268 32.0863659 50.600878 32.4463659 50.4742927 32.5424634 50.126 32.5444146 49.7596585 32.5466098 49.6138049 32.463439 49.6166886 32.0612439 49.6342927 29.6268537 49.626 27.1922195 49.6250244 24.7575854 49.6247805 24.5063659 49.5857561 24.2463657 49.9789268 24.2612439 51.3101463 24.3117317 52.6489268 24.1449024 53.9733171 24.3583171 55.3323415 24.5770976 56.0677073 25.3183171 56.193561 26.5273415 56.318439 27.7273415 55.7333171 28.6141707 54.4269756 29.0563659 53.990878 29.2039268 54.0791707 29.3275854 54.2779512 29.5888049 54.9955122 30.5322195 55.703561 31.4831951 56.4352683 32.4580732M76.0832439 28.3944878C76.083 27.1986341 76.0961707 26.0025366 76.0756829 24.8071707 76.0688537 24.4174146 76.1461707 24.246439 76.5912927 24.2530244 78.265439 24.2781463 79.9403171 24.2705854 81.6151951 24.256439 81.963 24.2535122 82.0839756 24.3530244 82.0876341 24.714 82.0915366 25.0979024 81.9247073 25.1576585 81.598122 25.1544878 80.2632439 25.1425366 78.9273902 25.1674146 77.5925122 25.1398537 77.1383659 25.1303415 77.0044634 25.2820488 77.0300732 25.7171707 77.0632439 26.2793659 77.0690976 26.8469268 77.0288537 27.4081463 76.9934878 27.9022927 77.1951951 28.0159512 77.6525122 28.0049756 78.7832439 27.9776585 79.915439 28.0022927 81.0469024 27.9922927 81.3544634 27.9893659 81.5469024 28.0127805 81.5451951 28.4137561 81.5432439 28.8225366 81.3337317 28.8322927 81.0334878 28.8303415 79.8790976 28.8225366 78.7247073 28.8427805 77.5710488 28.8186341 77.1671463 28.8103415 77.0022683 28.906439 77.0288537 29.3405854 77.0659268 29.9474146 77.063 30.5596098 77.0298293 31.1669268 77.0069024 31.5825366 77.1371463 31.7076585 77.5598293 31.6996098 78.9171463 31.6730244 80.2751951 31.6944878 81.6332439 31.686439 81.9310488 31.6844878 82.150561 31.6803415 82.1471856 32.0937561 82.1439756 32.4654634 82.0042195 32.5427805 81.6659268 32.5400976 79.9688537 32.526439 78.2712927 32.5235122 76.5742195 32.541561 76.1925122 32.5457073 76.067878 32.4371707 76.0751951 32.0493659 76.097878 30.8313171 76.0834878 29.6127805 76.0832439 28.3944878M58.4386585 28.3662683C58.4386585 27.171878 58.4557317 25.977 58.4293902 24.7833415 58.4203659 24.3652927 58.5469512 24.2477317 58.9645122 24.2535854 60.6142683 24.2767561 62.2647561 24.2706585 63.9147561 24.257 64.2708537 24.2540732 64.4420732 24.3174878 64.4391463 24.7316341 64.4362195 25.137 64.2364634 25.154561 63.9320732 25.1526098 62.6208537 25.1448049 61.3096341 25.167 59.9989024 25.1399268 59.5435366 25.1306585 59.3330488 25.2338293 59.3867073 25.7287073 59.4654878 26.4591951 59.0740244 27.4101707 59.5420732 27.8699268 59.9762195 28.2967561 60.9184146 27.9709024 61.6367073 27.9923659 62.2464634 28.0106585 62.8576829 28.0099268 63.467439 27.9911463 63.7823171 27.9813902 63.9037805 28.0743171 63.9010976 28.4062683 63.8986585 28.7306585 63.7915854 28.8360244 63.4689024 28.832122 62.2935366 28.8179756 61.117439 28.8477317 59.9428049 28.8167561 59.4886585 28.8048049 59.3596341 28.9528537 59.3840244 29.3874878 59.4181707 29.9940732 59.4157317 30.6052927 59.3845122 31.212122 59.3640244 31.6113902 59.5186585 31.702122 59.8903659 31.697 61.2237805 31.6782195 62.5576829 31.6901707 63.8913415 31.689439 64.1808537 31.689439 64.4647561 31.6204146 64.4672169 32.1011463 64.469878 32.5611463 64.2237805 32.5372439 63.9128049 32.5362683 62.262561 32.5309024 60.6123171 32.5209024 58.9623171 32.5430976 58.549878 32.5484634 58.4189024 32.4384634 58.4286585 32.0167561 58.4567073 30.8004146 58.4386585 29.5830976 58.4386585 28.3662683M100.092146 25.3477317C99.4338537 26.8187073 98.8436098 28.1372439 98.2472683 29.4699268L101.934098 29.4699268C101.320927 28.0974878 100.737756 26.7928537 100.092146 25.3477317M95.9153171 32.487C97.123122 29.8165122 98.3140976 27.1987073 99.4862927 24.5726098 99.6267805 24.2582195 99.8360488 24.2409024 100.122146 24.219439 100.489707 24.1916341 100.635073 24.3723659 100.768488 24.6696829 101.856293 27.0911463 102.960439 29.5052927 104.043854 31.9287073 104.11922 32.097 104.417512 32.3833415 104.108976 32.4855366 103.824341 32.5799268 103.378 32.7282195 103.164829 32.2667561 102.928732 31.7560244 102.684341 31.2472439 102.485073 30.722122 102.377756 30.439439 102.222146 30.3472439 101.93361 30.3496829 100.71239 30.3599268 99.4909268 30.3650488 98.2699512 30.3465122 97.940439 30.3413902 97.7840976 30.4696829 97.672878 30.759439 97.5362927 31.1157805 97.3543415 31.454561 97.1972683 31.8030976 96.8553171 32.5623659 96.8565366 32.5628537 95.9153171 32.487M106.116366 28.4360488C106.116366 27.2423902 106.116854 26.0487317 106.116122 24.8553171 106.115878 24.543122 106.044415 24.2489756 106.56661 24.2440331 107.113195 24.2389756 107.06222 24.5399512 107.061488 24.888 107.057829 26.9599512 107.074902 29.0319024 107.048561 31.1036098 107.042463 31.5811707 107.177829 31.7143415 107.651976 31.7006829 108.825634 31.6670244 110.001244 31.6989756 111.175634 31.6840976 111.520024 31.6797073 111.709049 31.720439 111.706155 32.1460488 111.702951 32.5826341 111.452951 32.5348293 111.179293 32.5345854 109.665878 32.532878 108.151976 32.5199512 106.639049 32.543122 106.226122 32.5494634 106.096366 32.438 106.106366 32.0167805 106.134902 30.8238537 106.116366 29.6297073 106.116366 28.4360488M23.6731707 22.9290732C23.6731707 24.2732195 23.6731707 24.2732195 22.3558537 24.2732195 20.944878 24.2732195 20.944878 24.2732195 20.944878 22.8878537 20.944878 21.5678537 20.944878 21.5678537 22.2968293 21.5678537 23.6731707 21.5678537 23.6731707 21.5678537 23.6731707 22.9290732"/>
    <path fill="#949DB4" d="M19.5963659 23.0037561C19.5963659 24.2732683 19.5963659 24.2732683 18.3388049 24.2732683 16.8670976 24.2732683 16.8670976 24.2732683 16.8670976 22.8130244 16.8670976 21.5679024 16.8670976 21.5679024 18.0914878 21.5679024L18.1590488 21.5679024C19.5963659 21.5679024 19.5963659 21.5679024 19.5963659 23.0037561M23.6731707 18.8483415C23.6731707 20.2185854 23.6731707 20.2185854 22.3214634 20.2183415 20.944878 20.2183415 20.944878 20.2183415 20.944878 18.8737073 20.944878 17.4954146 20.944878 17.4954146 22.2968293 17.4954146 23.6731707 17.4954146 23.6731707 17.4954146 23.6731707 18.8483415M19.5963659 18.8446585C19.5963659 20.218561 19.5963659 20.218561 18.2473415 20.2183171 16.8670976 20.2183171 16.8670976 20.2183171 16.8670976 18.8763659 16.8670976 17.4953902 16.8670976 17.4953902 18.2841707 17.4953902 19.5963659 17.4953902 19.5963659 17.4953902 19.5963659 18.8446585"/>
  </g>
</svg>
