<?xml version="1.0" encoding="UTF-8"?>
<svg width="275px" height="100px" viewBox="0 0 275 100" version="1.1" xmlns="http://www.w3.org/2000/svg" xmlns:xlink="http://www.w3.org/1999/xlink">
    <title>nex-metro</title>
    <defs>
        <polygon id="path-1" points="0.215612077 0.190175835 11.7308021 0.190175835 11.7308021 12.6455696 0.215612077 12.6455696"></polygon>
    </defs>
    <g id="nex-metro" stroke="none" stroke-width="1" fill="none" fill-rule="evenodd">
        <g id="Group-45" transform="translate(55.000000, 28.000000)">
            <g id="Group-44">
                <path d="M15.9320103,5.97719544 L21.3569281,5.97719544 L21.3569281,25.7750992 C19.7590514,25.7750992 18.1611747,25.6421803 16.5958733,25.8113499 C14.9258253,25.99176 14.0476952,25.3611676 13.2173048,23.926317 C10.8912568,19.908398 8.36947603,16.0040081 5.9232363,12.0557803 C5.81540068,11.8815524 5.6912774,11.717722 5.44106507,11.5724385 L5.44106507,25.7208638 L0.000140410959,25.7208638 L0.000140410959,5.94656506 L0.819297945,5.94656506 C2.85469521,5.94656506 4.89065411,5.97354228 6.9252089,5.93054734 C7.57053767,5.91705873 7.91847603,6.12585114 8.23748973,6.68787646 C10.6216678,10.8890157 13.0417911,15.06936 15.4523664,19.2556056 C15.5658185,19.4531575 15.6921884,19.643403 15.9320103,20.0295144 L15.9320103,5.97719544 Z" id="Fill-1" fill="#949DB4"></path>
                <path d="M41.0074418,5.94850405 C43.1773527,5.94850405 45.1650103,5.92939519 47.1512637,5.97210911 C47.4070925,5.97772937 47.7162774,6.25818 47.8979692,6.49113949 C49.1616678,8.11202051 50.3981267,9.75369646 51.7087226,11.474618 C52.4731199,10.4846104 53.2088733,9.53450658 53.9415377,8.58187367 C54.5253664,7.82257747 55.0954349,7.05232177 55.6952705,6.30567114 C55.8244486,6.14521291 56.0527568,5.96620785 56.2375377,5.96395975 C58.2462568,5.93951165 60.2555377,5.94878506 62.43275,5.94878506 C59.89075,9.28271924 57.4352432,12.5028433 54.9648527,15.7423572 C57.4866336,19.0552154 59.9907226,22.3441876 62.5476062,25.7028509 C62.3344623,25.7337623 62.1904007,25.77198 62.0460582,25.772261 C60.2443048,25.7764762 58.4419897,25.794742 56.6410788,25.7551192 C56.3526747,25.7486559 55.9805856,25.5477319 55.798613,25.3167395 C54.5264897,23.7020408 53.2936815,22.0558686 52.0493596,20.4189699 C51.9510719,20.2897041 51.8592432,20.155099 51.7376473,19.9853673 C50.3029281,21.8588787 48.94375,23.6396559 47.5739007,25.4117218 C47.4584829,25.5609395 47.2714555,25.7559623 47.1155993,25.7576484 C45.066161,25.7809724 43.0164418,25.7731041 40.8319281,25.7731041 C43.4247568,22.3683547 45.9361473,19.0701091 48.4697226,15.7429192 C46.004387,12.5070585 43.5603938,9.29929899 41.0074418,5.94850405" id="Fill-3" fill="#949DB4"></path>
                <path d="M80.4519411,9.47777013 C80.5912288,9.25577013 80.6906397,9.10458532 80.7830301,8.94918532 C82.4502699,6.13877772 85.4786534,5.05687899 88.4286877,5.61384608 C90.889811,6.07807899 92.5576123,8.08450937 92.8667973,10.8359043 C92.9735096,11.7865701 93.0161945,12.7484765 93.0204068,13.7056056 C93.037537,17.4287423 93.0274274,21.15216 93.0274274,24.8752967 L93.0274274,25.7349144 L90.2301603,25.7349144 L90.2301603,24.9725271 C90.2301603,21.6006562 90.2540301,18.2282233 90.2178041,14.8566334 C90.2043247,13.5738106 90.1408589,12.2791853 89.9473726,11.0132233 C89.5014274,8.09490684 87.8195849,7.52248405 85.2899411,8.05078785 C82.718174,8.58780304 81.6707082,10.5919853 81.2424548,12.9659803 C81.0649753,13.9495246 81.0172356,14.9656663 81.007126,15.9680385 C80.9776397,18.9183904 80.9964548,21.8690233 80.9964548,24.8196562 L80.9964548,25.7144005 L78.1716671,25.7144005 C78.1716671,25.4659853 78.1719479,25.2167271 78.1716671,24.9677499 C78.1660507,21.0805018 78.2028384,17.1926916 78.129263,13.3065676 C78.1073589,12.1566638 77.8857904,10.9797828 77.5558247,9.87484101 C77.1786808,8.61112709 76.1747425,8.01594228 74.8467356,7.91955494 C71.4869822,7.67479291 69.6150233,9.70876253 69.0309137,12.7493195 C68.8424822,13.7303347 68.7641329,14.7450714 68.7529,15.7457575 C68.7180781,18.8130106 68.7399822,21.8808258 68.7399822,24.94836 L68.7399822,25.7354765 L65.9856808,25.7354765 L65.9856808,6.32059291 L68.694489,6.32059291 C68.6467493,7.28221823 68.5992904,8.24468658 68.5518315,9.20715494 C70.0118247,6.93797772 71.9680301,5.54274987 74.6950918,5.49048152 C77.5021877,5.43652709 79.3460644,6.89245367 80.4519411,9.47777013" id="Fill-5" fill="#949DB4"></path>
                <polygon id="Fill-7" fill="#949DB4" points="24.3862945 5.98871696 38.514726 5.98871696 38.514726 9.94256506 29.8589521 9.94256506 29.8589521 13.4290891 36.5158356 13.4290891 36.5158356 17.4624638 29.8786096 17.4624638 29.8786096 21.7150284 38.511637 21.7150284 38.511637 25.7295752 24.3862945 25.7295752"></polygon>
                <path d="M111.931151,14.2645959 C111.696384,9.97016051 108.839583,7.54417823 104.539076,7.94068709 C101.638186,8.20793013 98.6128911,11.6166137 98.9229185,14.2645959 L111.931151,14.2645959 Z M99.0891651,16.7498719 C98.7656582,21.1682339 102.454816,24.5836618 106.824966,24.0694086 C109.031384,23.8100339 110.873295,23.0038086 112.028877,20.9883858 C112.10161,20.8610871 112.319528,20.7517732 112.473138,20.747558 C113.313076,20.7242339 114.154138,20.7363175 115.101631,20.7363175 C114.689103,22.0149251 114.076912,23.0830542 113.189795,23.9974694 C111.79411,25.4351301 110.051329,26.1733504 108.102145,26.4071529 C105.94796,26.6656846 103.802761,26.5906542 101.764555,25.7355327 C99.0989938,24.6171023 97.3505966,22.6368061 96.5606445,19.8665833 C95.6443226,16.6532035 95.7487884,13.4648339 97.278987,10.4540643 C99.0801788,6.90993266 102.152932,5.43574025 106.017042,5.49250481 C108.006103,5.52173013 109.910076,5.94662127 111.559905,7.16115797 C113.839336,8.83852253 114.736282,11.2349985 115.051645,13.9234466 C115.133083,14.6192339 115.131679,15.3242947 115.189247,16.0231732 C115.237268,16.6090846 114.98509,16.7644846 114.41446,16.7619554 C109.596398,16.7408795 104.778055,16.7498719 99.9599938,16.7498719 L99.0891651,16.7498719 Z" id="Fill-9" fill="#949DB4"></path>
                <path d="M154.85481,24.1191197 C156.900316,24.0407172 158.925885,22.904583 160.040748,20.4406641 C161.25109,17.7651425 161.278611,14.9937957 160.316515,12.2438058 C159.328584,9.41850456 157.029214,7.80436785 154.224364,7.83640329 C151.390029,7.86843873 149.179399,9.43592734 148.204947,12.2440868 C147.300981,14.8501982 147.341419,17.4945273 148.340303,20.0686033 C149.35407,22.68174 151.517241,24.1165906 154.85481,24.1191197 M144.606495,16.555102 C144.575885,14.3519628 144.838453,12.3646413 145.755056,10.5273805 C147.567481,6.89388684 150.654275,5.41182608 154.578481,5.48769949 C157.508858,5.54446405 160.005364,6.59376532 161.82144,8.98686911 C162.89109,10.3964286 163.444871,12.0246159 163.71081,13.756778 C164.097782,16.2777425 163.940522,18.751497 162.932371,21.1190286 C161.546515,24.3737172 158.989912,26.0923906 155.544789,26.4568641 C152.842159,26.7426539 150.279097,26.2865704 148.087001,24.501297 C146.233858,22.991697 145.287488,20.9799273 144.862885,18.6868641 C144.722755,17.930378 144.676419,17.1561881 144.606495,16.555102" id="Fill-11" fill="#949DB4"></path>
                <path d="M119.805679,8.63981848 L117.074405,8.63981848 L117.074405,6.29785899 L119.81298,6.29785899 L119.81298,8.43037975e-05 L122.618953,8.43037975e-05 L122.618953,6.24559063 L127.510028,6.24559063 L127.510028,8.6136843 L122.684665,8.6136843 C122.668097,8.90116025 122.644227,9.12372228 122.643946,9.3462843 C122.642261,13.1627172 122.63861,16.9794311 122.649843,20.7958641 C122.651247,21.2845451 122.707692,21.7765982 122.781829,22.260221 C122.953973,23.3825856 123.556898,23.8954337 124.702651,23.8552489 C125.186788,23.8381071 125.675138,23.7400337 126.146357,23.6191982 C126.592302,23.5045451 127.018028,23.3120514 127.549905,23.1184337 C127.549905,23.9555704 127.560857,24.7376286 127.538672,25.5182818 C127.535021,25.6436134 127.406686,25.8386362 127.294357,25.8762919 C125.706871,26.4085299 124.09074,26.7457451 122.41311,26.3860489 C121.160645,26.1176818 120.419275,25.2929096 120.155302,24.0730337 C119.992987,23.3232919 119.876727,22.548259 119.870829,21.7833425 C119.839377,17.6625729 119.849487,13.5415223 119.843028,9.42047165 C119.842747,9.19228937 119.821686,8.96382608 119.805679,8.63981848" id="Fill-13" fill="#949DB4"></path>
                <path d="M135.119123,25.7387643 L132.274397,25.7387643 L132.274397,6.33484025 L135.057061,6.33484025 L135.057061,10.5741972 C137.047246,7.04580228 139.866698,5.32319468 143.794554,5.50472886 L143.794554,8.00152633 C142.811397,8.10128582 141.830766,8.13444532 140.876534,8.30923519 C137.520712,8.9243719 135.616458,10.8931466 135.305869,14.3023922 C135.100588,16.5541466 135.158999,18.8306301 135.123616,21.0967162 C135.100027,22.6155896 135.119123,24.1350251 135.119123,25.7387643" id="Fill-15" fill="#949DB4"></path>
                <g id="Group-19" transform="translate(65.712329, 31.500395)">
                    <mask id="mask-2" fill="white">
                        <use xlink:href="#path-1"></use>
                    </mask>
                    <g id="Clip-18"></g>
                    <path d="M11.7308021,4.09604051 L10.543487,4.09604051 C10.1655007,2.69013418 9.33876096,1.71277215 7.84001438,1.42585823 C6.10172671,1.09285823 4.57911027,1.53095696 3.35304178,2.79579494 C1.68552123,4.51643544 1.14887055,6.56557975 1.89192534,8.86482532 C2.40835685,10.4626633 3.59174041,11.3793266 5.23876096,11.5633899 C7.00176096,11.7600987 8.52269247,11.1913291 9.37976096,9.5614557 C9.7813363,8.7979443 10.239076,8.63523797 11.0295897,8.83026076 C10.7097336,9.97510633 10.0644048,10.8720987 9.1228089,11.5816557 C6.82035,13.3171899 1.89052123,13.1991646 0.555493836,9.18827089 C0.0253020548,7.59577215 0.129206164,6.01114177 0.770884247,4.46023291 C2.20307603,0.999 5.75238425,-0.650544304 9.0688911,0.613450633 C10.6403705,1.21256962 11.4477336,2.40659241 11.7308021,4.09604051" id="Fill-17" fill="#949DB4" mask="url(#mask-2)"></path>
                </g>
                <path d="M112.029467,43.7401823 L110.965714,43.7401823 C111.145159,42.7060557 111.319268,41.7098658 111.490289,40.7133949 C111.632385,39.8852506 111.797508,39.0599165 111.904782,38.2272759 C112.02694,37.2782962 111.472036,36.6949139 110.516679,36.7485873 C109.378789,36.8123772 108.605686,37.4438127 108.322056,38.5046354 C107.931433,39.9661823 107.666618,41.4622937 107.363611,42.9466025 C107.182481,43.8340405 107.19596,43.8368506 106.166186,43.6940962 C106.44757,42.136162 106.728953,40.5801949 107.009495,39.0242278 C107.034207,38.8865316 107.070433,38.7482734 107.073522,38.6094532 C107.085597,38.0586684 107.255214,37.4342582 106.677844,37.0692228 C106.064529,36.6814253 105.409652,36.8272709 104.809536,37.1420051 C103.880858,37.628438 103.336625,38.4315722 103.134714,39.4429367 C102.855858,40.8390076 102.621933,42.2440709 102.35796,43.7070228 L101.292803,43.7070228 C101.734536,41.2096633 102.172337,38.7364709 102.618282,36.2152253 L103.669118,36.2152253 C103.621097,36.5752025 103.577289,36.9028633 103.521125,37.3224152 C105.625323,35.3238532 107.426796,35.297438 108.263645,37.2535671 C109.079714,36.1876861 110.094604,35.5809797 111.476248,35.8912177 C112.427673,36.1050684 113.030036,36.7643241 112.968536,37.7276354 C112.892995,38.9109797 112.678727,40.0870177 112.495632,41.2619316 C112.370104,42.0664709 112.196275,42.8634228 112.029467,43.7401823" id="Fill-20" fill="#949DB4"></path>
                <path d="M88.9617438,36.1942899 L89.9873055,36.1942899 C89.9547301,36.5632595 89.9252438,36.9001937 89.8929493,37.2663532 C92.538011,35.3223076 93.7006137,35.3079759 94.6040178,37.4037684 C94.8101411,37.1165734 94.947463,36.8830519 95.1252233,36.686062 C95.6756342,36.0754215 96.4021205,35.8275684 97.1943192,35.8005911 C98.6944699,35.7497278 99.5782164,36.8920443 99.3119973,38.5621025 C99.0586959,40.1517911 98.7554082,41.7333304 98.4726205,43.3185228 C98.3324904,44.1053582 97.7539973,43.6180823 97.2791274,43.8417684 C97.5894356,42.1053911 97.8716616,40.525819 98.1547301,38.9462468 C98.1712986,38.8543557 98.2097712,38.7647127 98.2142644,38.6728215 C98.2451548,38.0500975 98.4257233,37.3568392 97.7500658,36.9589253 C97.0550315,36.5492089 96.3420247,36.7107911 95.6930452,37.1106722 C94.9446548,37.5712519 94.6118808,38.3302671 94.4369288,39.1415506 C94.1664973,40.3951481 93.9570041,41.6616722 93.7180247,42.9220139 C93.6669151,43.1920671 93.6014836,43.4593101 93.540826,43.7369506 L92.4992575,43.7369506 C92.7972096,42.0736367 93.0948808,40.4482595 93.3771068,38.8200722 C93.488874,38.1745861 93.665511,37.461938 92.9606479,37.0468823 C92.290326,36.6523405 91.5944493,36.8487684 90.9746753,37.2376899 C89.9951685,37.8525456 89.5489425,38.8020873 89.3694973,39.9115253 C89.186963,41.0403532 88.9687644,42.1632797 88.7957781,43.2935127 C88.6826068,44.033419 88.1496068,43.6650114 87.618011,43.8428924 C88.079963,41.2143 88.5166411,38.7290241 88.9617438,36.1942899" id="Fill-22" fill="#949DB4"></path>
                <path d="M154.051827,39.1425904 C154.037786,37.8367246 153.160218,36.8416587 151.970937,36.7427423 C150.548293,36.6244359 149.130142,37.7254435 148.912786,39.1425904 L154.051827,39.1425904 Z M155.046779,40.1033727 L151.854677,40.1033727 L148.722108,40.1033727 C148.471896,41.2664841 148.99619,42.4717473 149.92206,42.9351372 C151.020355,43.484517 152.340218,43.2006942 153.166677,42.10896 C153.582574,41.5595803 154.015882,41.4924182 154.598307,41.6258992 C154.011951,43.3440106 152.209074,44.3261499 150.201197,44.040922 C148.611745,43.8149878 147.551362,42.4790537 147.498567,40.6356106 C147.423868,38.0294992 148.918684,36.1534587 151.407889,35.8496841 C154.024868,35.5301727 155.524177,37.8131195 155.046779,40.1033727 L155.046779,40.1033727 Z" id="Fill-24" fill="#949DB4"></path>
                <path d="M79.2248616,40.5844101 C79.2450808,41.5623342 79.5281493,42.5217114 80.6427315,42.9811671 C81.7800603,43.4498962 82.8207863,43.1896785 83.6834712,42.3691215 C84.6245055,41.4740962 84.9294781,40.314638 84.8151836,39.0402456 C84.7247589,38.0302861 84.2849918,37.2333342 83.2883548,36.8882506 C82.1987658,36.5111316 81.2063411,36.7699443 80.3739849,37.5525646 C79.5399438,38.3368709 79.2366562,39.3504835 79.2248616,40.5844101 M81.5368685,44.0771165 C79.1591493,44.045643 77.847711,42.4095873 78.0807932,40.0029949 C78.2838274,37.9080456 79.7067521,36.2124152 81.6595877,35.9117316 C84.4130466,35.4874025 86.0755123,36.963 85.9898616,39.7551418 C85.9126356,42.2822886 84.0294438,44.1097139 81.5368685,44.0771165" id="Fill-26" fill="#949DB4"></path>
                <path d="M156.379308,41.7021661 L157.47339,41.7021661 C158.319225,43.0639534 159.431561,43.4972749 160.796355,42.9391838 C161.126321,42.8040167 161.462465,42.5704952 161.678417,42.2914496 C162.232479,41.5765534 161.966821,40.7135635 161.104979,40.4533458 C160.393938,40.2386522 159.64976,40.1332724 158.920184,39.9809635 C158.151294,39.8199433 157.578136,39.4262446 157.411609,38.6166471 C157.246205,37.8135129 157.52815,37.1404876 158.128266,36.6068446 C159.26026,35.5996952 161.819951,35.5117382 162.976938,36.5042749 C163.37065,36.8417711 163.587164,37.3855306 163.948582,37.9318192 C163.153575,38.0756977 162.680109,38.1566294 162.267582,37.4487585 C161.694986,36.4660572 159.474527,36.4497585 158.74439,37.3242699 C158.20465,37.970599 158.482664,38.8015534 159.327376,38.9903939 C159.918225,39.1221889 160.52789,39.1674319 161.119301,39.2972597 C162.24652,39.5445509 162.952225,40.2310648 163.069328,41.1421078 C163.198787,42.1484142 162.640513,43.1535965 161.625623,43.6405914 C160.376527,44.2402724 159.081095,44.2141382 157.820205,43.7175889 C156.981951,43.387399 156.525897,42.6854294 156.379308,41.7021661" id="Fill-28" fill="#949DB4"></path>
                <path d="M122.68562,36.2685334 C122.249784,38.7372296 121.813668,41.2081739 121.369969,43.7215511 L120.302846,43.7215511 C120.348058,43.3787157 120.391024,43.053303 120.449154,42.6135182 C120.003209,42.9743385 119.670997,43.2598473 119.321373,43.5223132 C118.625777,44.0438727 117.829928,44.1649891 116.993079,44.0357233 C116.061592,43.8918448 115.304497,43.0774701 115.359818,42.052617 C115.429462,40.7543385 115.666757,39.4650524 115.842832,38.1732372 C115.896469,37.7812246 115.99251,37.3951132 116.057942,37.0045056 C116.212394,36.0847511 116.209586,36.0841891 117.255928,36.2460524 C117.01386,37.6384701 116.76112,39.0286397 116.53562,40.4233056 C116.457832,40.9027132 116.386223,41.3970144 116.41964,41.8772651 C116.48451,42.8130372 117.12001,43.2840144 118.046161,43.1623359 C119.442408,42.9791157 120.513743,41.9798347 120.833038,40.4870954 C121.08662,39.3020651 121.272524,38.102703 121.497182,36.9114904 C121.656688,36.0653613 121.663147,36.0664853 122.68562,36.2685334" id="Fill-30" fill="#949DB4"></path>
                <path d="M125.403611,43.7436106 L124.349125,43.7436106 C124.544015,42.5942689 124.729358,41.4814587 124.922282,40.3697727 C125.117734,39.244598 125.315433,38.1197043 125.523803,36.9967777 C125.692015,36.0885448 125.699878,36.0899499 126.703536,36.2414157 C126.682755,36.4139575 126.661412,36.5890284 126.640632,36.7638182 C126.622659,36.9192182 126.60581,37.0746182 126.603001,37.0987853 C127.356166,36.7098638 128.104275,36.1531777 128.941405,35.9280866 C130.569611,35.4902689 131.82657,36.5702005 131.712556,38.2832537 C131.630837,39.5104359 131.349734,40.7241296 131.147823,41.9423195 C131.049255,42.5369423 130.929344,43.1276309 130.815611,43.7377094 L129.769549,43.7377094 C129.952645,42.6470992 130.127878,41.6017322 130.303392,40.5563651 C130.41909,39.86676 130.571577,39.1808081 130.643748,38.4864258 C130.7777,37.1934866 129.948714,36.4690359 128.69344,36.7905144 C127.256474,37.158641 126.441529,38.1464005 126.158179,39.5702916 C125.885221,40.9391043 125.65944,42.3169094 125.403611,43.7436106" id="Fill-32" fill="#949DB4"></path>
                <path d="M140.774511,34.0278228 C140.669484,34.808757 140.565579,35.5818228 140.451566,36.4287949 L141.993278,36.4287949 C141.933463,36.7603899 141.887127,37.0161114 141.847812,37.2347392 C141.28336,37.3280354 140.595627,37.2434506 140.304134,37.5441342 C139.992141,37.8656127 140.045778,38.5487544 139.95423,39.0764962 C139.794723,39.9962506 139.606853,40.9131949 139.502668,41.8396937 C139.381915,42.9156911 139.559114,43.0792405 140.614723,43.0873899 C140.775915,43.0885139 140.936826,43.0876709 141.159237,43.0876709 C141.099141,43.422638 141.048312,43.7067418 141.000853,43.9720177 C140.950867,43.9989949 140.93121,44.0169797 140.909305,44.0203519 C138.750908,44.3350861 138.08199,43.6966253 138.397073,41.5564329 C138.563881,40.425638 138.814655,39.3074886 139.022182,38.1825949 C139.067675,37.9358658 139.092107,37.6849215 139.130299,37.4050329 C138.81971,37.3578228 138.571744,37.3201671 138.328833,37.2833544 C138.230264,36.5251823 138.230264,36.5251823 139.322662,36.3723114 C139.419264,35.853843 139.588881,35.3128937 139.604607,34.7674481 C139.627073,33.987919 139.976696,33.7912101 140.774511,34.0278228" id="Fill-34" fill="#949DB4"></path>
                <path d="M145.745115,36.1555944 C145.292149,38.7706982 144.862773,41.2458577 144.433115,43.7269185 L143.295505,43.7269185 C143.729375,41.2944729 144.139656,38.9072704 144.588971,36.5279362 C144.714218,35.8650273 145.247779,36.2668754 145.745115,36.1555944" id="Fill-36" fill="#949DB4"></path>
                <path d="M134.946333,43.7333256 L133.805073,43.7333256 C134.141778,41.8381762 134.470621,39.9848977 134.801429,38.1316192 C134.867141,37.7646167 134.946895,37.4001433 135.01036,37.0328597 C135.173799,36.0850041 135.171552,36.084442 136.239237,36.238718 C136.020758,37.4695534 135.798347,38.6981408 135.586045,39.9286952 C135.37234,41.1688041 135.168463,42.410318 134.946333,43.7333256" id="Fill-38" fill="#949DB4"></path>
                <path d="M144.96516,34.4771901 C145.033962,34.0910787 145.092653,33.7603268 145.157242,33.3992256 L146.24964,33.3992256 C146.179715,33.785337 146.119619,34.1158078 146.053907,34.4771901 L144.96516,34.4771901 Z" id="Fill-40" fill="#949DB4"></path>
                <path d="M136.682823,33.4286195 C136.670186,34.5790853 136.570495,34.660017 135.48596,34.4349258 C135.656138,33.2760296 135.656138,33.2760296 136.682823,33.4286195" id="Fill-42" fill="#949DB4"></path>
            </g>
        </g>
    </g>
</svg>