<svg xmlns="http://www.w3.org/2000/svg" xmlns:xlink="http://www.w3.org/1999/xlink" width="275" height="100" viewBox="0 0 275 100">
  <defs>
    <polygon id="progress-residential-a" points="0 .26 34.803 .26 34.803 26.082 0 26.082"/>
  </defs>
  <g fill="none" fill-rule="evenodd" transform="translate(63 30)">
    <g transform="translate(0 .003)">
      <mask id="progress-residential-b" fill="#fff">
        <use xlink:href="#progress-residential-a"/>
      </mask>
      <path fill="#949DB4" d="M7.18136842,9.71660526 C7.18136842,10.7621316 7.18005263,11.8076579 7.18215789,12.8529211 C7.18294737,13.0992368 7.18873684,13.1063421 7.41347368,13.1066053 C8.53742105,13.1071316 9.66163158,13.1171316 10.7853158,13.0971316 C11.5476842,13.0837105 12.2884737,12.9363421 12.9716316,12.5747632 C13.8268947,12.1221316 14.3797895,11.4316053 14.5808421,10.4789737 C14.6708421,10.0526579 14.6761053,9.62134211 14.6245263,9.18528947 C14.4934737,8.08344737 13.9497895,7.27344737 12.9537368,6.77818421 C12.2734737,6.44002632 11.5429474,6.30792105 10.7897895,6.30265789 C9.67689474,6.29476316 8.564,6.2995 7.45110526,6.30107895 C7.18610526,6.30107895 7.18215789,6.30528947 7.18189474,6.58002632 C7.18031579,7.62555263 7.18136842,8.67107895 7.18136842,9.71660526 M33.2618947,13.2487105 C31.2145263,13.4581842 29.7776842,14.4839737 29.0384737,16.4258158 C28.6253158,17.5110789 28.5003158,18.6463421 28.499,19.7987105 C28.4968947,21.7563421 28.4984737,23.7142368 28.4982105,25.6718684 C28.4982105,25.7497632 28.4932105,25.8281842 28.499,25.9055526 C28.5087368,26.0355526 28.4505789,26.0881842 28.3237368,26.0802895 C28.2571579,26.0763421 28.1900526,26.0800263 28.1234737,26.0800263 L21.8461053,26.0800263 C21.7792632,26.0800263 21.7121579,26.0750263 21.6458421,26.0802895 C21.5095263,26.0918684 21.4713684,26.0213421 21.4795263,25.9000263 C21.4845263,25.8223947 21.4800526,25.7442368 21.4800526,25.6663421 L21.4800526,12.6845 L21.4800526,12.3250263 C21.3963684,12.3502895 21.3863684,12.4089737 21.3705789,12.4576579 C20.554,14.9747632 18.8261053,16.6313421 16.439,17.6581842 C15.2455789,18.1713421 13.9921579,18.4571316 12.7029474,18.6021316 C11.8163684,18.7018684 10.9276842,18.7208158 10.0368947,18.7160789 C9.20215789,18.7113421 8.36742105,18.7139737 7.53268421,18.7155526 C7.14531579,18.7160789 7.18163158,18.6787105 7.18136842,19.0800263 C7.18057895,20.9042368 7.18110526,22.7287105 7.18110526,24.5529211 C7.18110526,24.9755526 7.18321053,25.3981842 7.18031579,25.8210789 C7.17847368,26.0739737 7.17505263,26.0789737 6.92189474,26.0792368 C4.70689474,26.0808158 2.49189474,26.0805526 0.277157895,26.0792368 C0.0276842105,26.0792368 0.0274210526,26.0745 0.0221578947,25.8184474 C0.0211052632,25.7629211 0.0218947368,25.7071316 0.0218947368,25.6516053 C0.0218947368,17.3976579 0.0218947368,9.14371053 0.0232105263,0.8895 C0.0232105263,0.701605263 -0.051,0.462394737 0.0658421053,0.338973684 C0.197947368,0.198973684 0.445842105,0.287131579 0.642421053,0.286868421 C4.22636842,0.283973684 7.81031579,0.281078947 11.394,0.286342105 C13.0311053,0.288973684 14.6303158,0.535552632 16.1682105,1.11055263 C17.8092632,1.72397368 19.2084737,2.67371053 20.2500526,4.10634211 C20.6974211,4.72213158 21.0426842,5.39186842 21.2953158,6.1095 C21.3355789,6.22344737 21.3787368,6.33634211 21.4287368,6.47265789 C21.5058421,6.41186842 21.4797895,6.34344737 21.4779474,6.29292105 C21.4729474,6.15344737 21.5479474,6.12213158 21.6661053,6.13028947 C21.7213684,6.13423684 21.7774211,6.13081579 21.8329474,6.13081579 L28.1437368,6.13081579 C28.1771579,6.13081579 28.2105789,6.13002632 28.244,6.13107895 C28.4926842,6.13713158 28.4971579,6.13713158 28.4974211,6.39502632 C28.4995263,7.46318421 28.4984737,8.53107895 28.4984737,9.59897368 L28.4984737,10.0105526 C28.6216316,9.89055263 28.6545263,9.76502632 28.7074211,9.65476316 C29.1187368,8.79581579 29.6211053,8.00081579 30.3129474,7.33607895 C31.2297895,6.45476316 32.3305789,5.97660526 33.5879474,5.84160526 C33.8976842,5.80844737 34.2079474,5.77897368 34.5205789,5.78818421 C34.7945263,5.79634211 34.7987368,5.79555263 34.7992632,6.06923684 C34.8013684,7.05923684 34.8000526,8.04923684 34.8003158,9.03923684 C34.8003158,9.25055263 34.8018947,9.46186842 34.8026842,9.67265789 C34.7845263,9.77213158 34.7334737,9.85502632 34.6811053,9.94081579 C34.3229474,10.5268684 34.0008421,11.1326579 33.7592632,11.7758158 C33.5768947,12.2605526 33.4266316,12.7573947 33.2618947,13.2487105" mask="url(#progress-residential-b)"/>
    </g>
    <path fill="#949DB4" d="M123.120026,11.782 C122.683974,11.5675263 122.283184,11.3504211 121.864237,11.1709474 C121.087132,10.8383158 120.280026,10.6556842 119.4345,10.6554211 C118.935289,10.6551579 118.433447,10.6035789 117.937658,10.7122632 C117.751079,10.7530526 117.573974,10.8141053 117.411605,10.9148947 C116.905289,11.2283158 116.840553,11.8341053 117.270553,12.2430526 C117.500553,12.4617368 117.782395,12.5964737 118.070553,12.7156842 C118.811342,13.0217368 119.581079,13.2409474 120.3495,13.4643684 C121.641605,13.8396316 122.925816,14.237 124.1245,14.8641053 C124.460289,15.0396316 124.782658,15.2362105 125.092395,15.4543684 C126.3195,16.3188421 127.074763,17.4759474 127.261868,18.9777895 C127.282132,19.1404211 127.344763,19.2348947 127.481079,19.3148947 C129.251079,20.3483158 131.1145,21.1404211 133.142395,21.5033158 C133.824237,21.6251579 134.511342,21.6725263 135.1995,21.5396316 C135.397921,21.5014737 135.585553,21.4348947 135.753447,21.3196316 C136.248447,20.9796316 136.290553,20.2738421 135.836868,19.8822632 C135.615026,19.6906842 135.352132,19.5688421 135.082395,19.4630526 C134.305026,19.1583158 133.498447,18.9472632 132.695026,18.7277895 C131.579237,18.4230526 130.471868,18.0948947 129.4195,17.6051579 C128.954763,17.3888421 128.508184,17.1414737 128.087132,16.8485789 C126.808711,15.9591053 126.053447,14.7462105 125.894237,13.1954211 C125.777395,12.0554211 125.866079,10.9283158 126.3045,9.85173684 C126.908974,8.367 127.985553,7.33568421 129.411868,6.64831579 C130.518447,6.11515789 131.695289,5.84989474 132.916342,5.77173684 C135.672921,5.59463158 138.290816,6.13121053 140.780026,7.31621053 C141.141342,7.48831579 141.491868,7.68173684 141.832395,7.89305263 C142.095816,8.05621053 142.098711,8.05673684 141.956079,8.32015789 C141.485553,9.19042105 141.013184,10.0598947 140.541342,10.9293684 C140.302921,11.3691053 140.065289,11.8093684 139.825289,12.2480526 C139.695289,12.4859474 139.692395,12.487 139.458447,12.3630526 C138.404763,11.8038421 137.311079,11.3425263 136.161079,11.0212105 C135.333447,10.7901579 134.495553,10.6251579 133.629763,10.6488421 C133.337658,10.657 133.052921,10.702 132.783184,10.8133158 C132.456605,10.9485789 132.212132,11.1654211 132.169763,11.5388421 C132.127132,11.9130526 132.316605,12.1762105 132.609237,12.3788421 C132.866605,12.557 133.151342,12.6827895 133.442658,12.7948947 C134.335816,13.1385789 135.261079,13.3812105 136.175816,13.6564737 C137.283711,13.9901579 138.376342,14.3643684 139.400553,14.9133158 C139.882395,15.1717368 140.338447,15.4677895 140.755026,15.8230526 C141.808447,16.7217368 142.378184,17.8696316 142.479763,19.2417368 C142.572658,20.4912105 142.418711,21.7080526 141.863447,22.8480526 C141.131342,24.3506842 139.906079,25.2935789 138.372658,25.8730526 C137.419237,26.2333158 136.428184,26.4185789 135.412395,26.487 C132.592658,26.6759474 129.898447,26.1877895 127.331342,25.0062105 C126.866605,24.792 126.410553,24.5593684 125.978184,24.2854211 C125.838447,24.1967368 125.756342,24.2112105 125.639763,24.3285789 C124.576605,25.4012105 123.2545,25.9714737 121.800289,26.2733158 C120.282132,26.5888421 118.753447,26.5909474 117.217658,26.4183158 C114.954763,26.1635789 112.833974,25.4825263 110.867132,24.3314737 C110.474763,24.1017368 110.090026,23.8593684 109.715816,23.5730526 C110.5895,22.1596316 111.453447,20.7612105 112.319763,19.3596316 C112.448447,19.3775263 112.529237,19.4564737 112.619763,19.5125263 C114.085816,20.4264737 115.650553,21.0956842 117.351605,21.4312105 C118.086342,21.5762105 118.826868,21.6391053 119.575026,21.6027895 C119.877658,21.5883158 120.167132,21.5222632 120.446079,21.3985789 C121.062132,21.1259474 121.156342,20.2041053 120.597658,19.8254211 C120.308974,19.6301579 119.996868,19.4898947 119.671868,19.3730526 C118.813711,19.0646316 117.928974,18.8433158 117.051868,18.5980526 C116.044763,18.3164737 115.051342,17.9959474 114.106605,17.5409474 C113.349763,17.1762105 112.648711,16.732 112.060289,16.1241053 C111.245553,15.2825263 110.820816,14.267 110.711342,13.1112105 C110.603447,11.9764737 110.711342,10.8672632 111.143447,9.80489474 C111.795553,8.20331579 112.975816,7.12726316 114.541605,6.45015789 C115.841342,5.88831579 117.211868,5.69621053 118.615816,5.72910526 C119.448974,5.74857895 120.283711,5.757 121.110816,5.89384211 C122.160026,6.06726316 123.150816,6.42936842 124.139237,6.80121053 C124.523974,6.94621053 124.904237,7.10331579 125.284763,7.25936842 C125.516868,7.35489474 125.518447,7.36068421 125.394237,7.59147368 C124.950553,8.41305263 124.505026,9.23357895 124.0595,10.0543684 C123.752395,10.6201579 123.444237,11.1856842 123.120026,11.782"/>
    <path fill="#949DB4" d="M103.883553 14.4451842C103.790132 13.6959737 103.582237 13.0130789 103.198816 12.3841316 102.049868 10.4993947 99.2777632 10.3133421 97.9277632 12.1072895 97.4075 12.7988684 97.1238158 13.5825526 96.9706579 14.4451842L103.883553 14.4451842zM84.9359211 9.97544737C85.2172368 9.50623684 85.4498684 9.03913158 85.7322368 8.59807895 86.4219737 7.5215 87.3114474 6.67755263 88.5188158 6.20518421 89.2956579 5.90097368 90.1082895 5.79228947 90.9380263 5.79255263 91.2464474 5.79281579 91.2490789 5.79728947 91.2493421 6.10913158 91.2503947 7.75544737 91.2493421 9.40176316 91.2506579 11.0480789 91.2506579 11.1649211 91.2330263 11.2849211 91.2740789 11.4059737 91.3756579 11.3680789 91.3809211 11.2817632 91.4135526 11.2172895 92.8843421 8.32702632 95.1877632 6.49518421 98.3840789 5.89334211 100.819079 5.43518421 103.197763 5.68834211 105.424868 6.84913158 107.2625 7.8065 108.539079 9.29544737 109.384079 11.1683421 109.946974 12.4159737 110.254868 13.7296579 110.391711 15.0888684 110.480132 15.9659737 110.459079 16.8438684 110.446711 17.7220263 110.441711 18.0867632 110.459605 18.0578158 110.090132 18.0578158 105.894342 18.0578158 101.698289 18.0575526 97.5025 18.0588684 97.3727632 18.0588684 97.2388158 18.0341316 97.0885526 18.0938684 97.4619737 19.4670263 98.2109211 20.5233421 99.5838158 21.0086053 101.286447 21.6109737 102.911974 21.3809737 104.434079 20.4154474 104.858026 20.1459737 105.241974 19.8249211 105.610395 19.4846579 105.811711 19.2988684 105.814868 19.2978158 106.010132 19.4593947 107.168026 20.4159737 108.325395 21.3733421 109.481711 22.3317632 109.694605 22.5083421 109.694868 22.5125526 109.505395 22.7415 107.952763 24.6162368 105.996974 25.8422895 103.603289 26.3109737 101.183816 26.7849211 98.7888158 26.6680789 96.4877632 25.7320263 93.2456579 24.4128158 91.2746053 21.9996579 90.5501316 18.5843947 90.1853947 16.8641316 90.2327632 15.1380789 90.6256579 13.4233421 90.6403947 13.3591316 90.6756579 13.2980789 90.6506579 13.2122895 90.2917105 13.1520263 89.9306579 13.2146579 89.5706579 13.2586053 88.8919737 13.3415 88.2432895 13.5283421 87.6390789 13.8546579 86.5103947 14.4641316 85.8188158 15.4278158 85.4101316 16.6157105 85.0514474 17.6578158 84.9388158 18.7386053 84.9367105 19.8336053 84.9332895 21.7801842 84.9356579 23.7270263 84.9356579 25.6736053 84.9356579 25.7515 84.9306579 25.8296579 84.9364474 25.9072895 84.9456579 26.0343947 84.8932895 26.0925526 84.7640789 26.0838684 84.6975 26.0791316 84.6306579 26.0836053 84.5638158 26.0836053L78.2864474 26.0836053C78.2088158 26.0836053 78.1309211 26.0815 78.0530263 26.0825526 77.9535526 26.0838684 77.9153947 26.0320263 77.9182895 25.9380789 77.9206579 25.8601842 77.9177924 25.7822895 77.9177924 25.7043947L77.9177924 6.51623684C77.9177924 6.48281579 77.9177924 6.44939474 77.9177924 6.41623684 77.9222368 6.13939474 77.9222368 6.13781579 78.1875 6.13465789 78.4101316 6.13255263 78.6330263 6.13439474 78.8556579 6.13439474 80.7475 6.13439474 82.6393421 6.13413158 84.5317105 6.13439474 84.6206579 6.13439474 84.7098684 6.13518421 84.7988158 6.13518421 84.8975 6.13518421 84.9369737 6.18781579 84.9351316 6.28202632 84.9332895 6.35992105 84.9356579 6.43781579 84.9356579 6.51571053 84.9359211 7.5615 84.9359211 8.60702632 84.9359211 9.65281579L84.9359211 9.97544737zM65.4220263 11.1697105C63.3049211 11.1252368 61.4199211 12.5605 61.3341316 14.8639211 61.2775526 16.3765526 61.8570263 17.5736579 63.1796579 18.3570789 64.0212368 18.8555 64.9486053 18.9999737 65.9138684 18.9036579 66.4949211 18.8457632 67.0509737 18.6886579 67.5572895 18.3910263 68.8657105 17.6226053 69.4875526 16.4552368 69.4686053 14.9586579 69.4509737 13.5544474 68.8480789 12.4531316 67.6249211 11.7270789 66.9486053 11.3257632 66.2067632 11.1565526 65.4220263 11.1697105M55.0149211 11.4662895C55.3872895 10.4573421 55.8815 9.51602632 56.5822895 8.69365789 57.9993947 7.02944737 59.7943947 6.04865789 61.9633421 5.77497368 63.4665 5.58576316 64.9380789 5.71707895 66.3515 6.30365789 67.3749211 6.72839474 68.2417632 7.37839474 69.0267632 8.14760526 69.1062368 8.2255 69.1846579 8.30471053 69.2659737 8.3805 69.2793947 8.39313158 69.3051842 8.39207895 69.3641316 8.40734211L69.3641316 7.78313158C69.3641316 7.32707895 69.3625526 6.87102632 69.3646579 6.41497368 69.3659737 6.13865789 69.3686053 6.13628947 69.6346579 6.13497368 70.0354474 6.13260526 70.4359737 6.13444737 70.8367632 6.13444737 72.5507105 6.13444737 74.2646579 6.13418421 75.9788684 6.13444737 76.0678158 6.13444737 76.1567632 6.13523684 76.2457105 6.1355 76.3441316 6.13602632 76.3838684 6.18892105 76.3812368 6.28339474 76.3791316 6.36128947 76.3817632 6.43918421 76.3817632 6.51707895 76.3820263 11.5228684 76.3870263 16.5286579 76.3788684 21.5341842 76.3765 23.0976053 76.2104474 24.6431316 75.7036053 26.1328684 74.8467632 28.6510263 73.1186053 30.3094474 70.6391316 31.2147105 69.5359737 31.6178684 68.3928158 31.8360263 67.2265 31.9531316 65.9278158 32.0836579 64.6278158 32.0915526 63.3265 32.0078684 60.5215 31.8273421 57.8393947 31.1718158 55.3112368 29.9252368 55.2812368 29.9102368 55.2517632 29.8952368 55.2220263 29.8797105 55.0122895 29.7697105 55.0093947 29.7681316 55.1065 29.5639211 55.2591316 29.2426053 55.4154474 28.9231316 55.5707105 28.6033947 56.0951842 27.5236579 56.6199211 26.4441842 57.1436053 25.3641842 57.2749211 25.0931316 57.2536053 25.1144474 57.4999211 25.2462895 58.7215 25.8991842 59.9941316 26.4197105 61.3546579 26.7005 62.8025526 26.9991842 64.2601842 27.1191842 65.7307105 26.8755 66.1491316 26.8060263 66.5557105 26.6923421 66.9457105 26.5255 68.3472895 25.9265526 69.1012368 24.8291842 69.3675526 23.3620789 69.4772895 22.7573421 69.4783421 22.1452368 69.4693947 21.5328684 69.4691316 21.5039211 69.4522895 21.4749737 69.4536053 21.4789211 69.3033421 21.6062895 69.1333421 21.7278684 68.9896579 21.8752368 67.8422895 23.0523421 66.4999211 23.8889211 64.8641316 24.1783947 61.3391316 24.8015526 57.2636053 23.3883947 55.4041316 19.5086579 55.4030789 19.3623421 55.4465 19.2247105 55.4886053 19.0868158 55.7025526 18.3844474 55.8315 17.6628684 55.8715 16.9336579 55.9125526 16.1933947 55.9162368 15.4510263 55.8325526 14.7078684 55.7172895 13.6870789 55.4601842 12.7073421 55.0938684 11.7520789 55.0583421 11.6591842 55.0099211 11.5702368 55.0149211 11.4662895"/>
    <path fill="#949DB4" d="M55.0149474 11.4663947C55.0096842 11.5703421 55.0583684 11.6590263 55.0938947 11.7519211 55.4599474 12.7071842 55.7170526 13.6871842 55.8323158 14.7079737 55.9162632 15.4511316 55.9125789 16.1935 55.8715263 16.9337632 55.8315263 17.6627105 55.7025789 18.3845526 55.4886316 19.0869211 55.4465263 19.2248158 55.4031053 19.3621842 55.4041579 19.5087632 55.2981053 19.6306053 55.2757368 19.7895526 55.2217895 19.9337632 54.2723158 22.4600789 52.6436316 24.4248158 50.3423158 25.8337632 50.2496842 25.8903421 50.1636316 25.9645526 50.0283684 25.9856053 49.9828421 25.9090263 49.9986316 25.8206053 49.9986316 25.7379737 49.9978421 23.1582368 49.9981053 20.5785 49.9981053 17.9985 49.9981053 17.9653421 50.0012632 17.9313947 49.9975789 17.8985 49.9794211 17.7306053 50.0425789 17.6621842 50.2220526 17.6661316 50.7002105 17.6763947 51.1786316 17.6695526 51.6570526 17.6695526L52.5891579 17.6695526C49.8391579 14.4495526 47.1425789 11.2927105 44.4302105 8.11718421 41.7188947 11.2916579 39.026 14.4442895 36.3373158 17.5921842 36.3883684 17.7098158 36.4786316 17.6666579 36.5467895 17.6669211 37.2254737 17.6706053 37.9041579 17.6679737 38.5828421 17.6703421 38.8549474 17.6711316 38.8594211 17.6748158 38.8594211 17.9458684 38.8604737 20.5590263 38.8602105 23.1721842 38.8588947 25.7853421 38.8588947 25.8477105 38.8804737 25.9171842 38.8215263 25.9774474 38.716 25.9835 38.6402105 25.9085 38.5591579 25.8582368 35.6865263 24.0832368 33.8625789 21.5616579 33.1757368 18.2469211 32.8465263 16.6592895 32.8778421 15.0674474 33.2299474 13.4832368 33.2467895 13.4074474 33.2515263 13.3292895 33.2620526 13.2521842 33.4265263 12.7606053 33.5770526 12.2640263 33.7591579 11.7790263 34.0007368 11.1361316 34.3231053 10.5303421 34.681 9.94428947 34.7333684 9.8585 34.7846842 9.77560526 34.8028421 9.67613158 34.9186316 9.61823684 34.9699474 9.50218421 35.0402105 9.40455263 36.8446842 6.90007895 39.2565263 5.31402632 42.2875789 4.73902632 47.5220526 3.74586842 52.6188947 6.43271053 54.8367895 11.1527105 54.8875789 11.2608684 54.9102105 11.3879737 55.0149474 11.4663947M79.1084211 34.1000526L79.1084211 35.3013684C79.1081579 35.6355789 79.0960526 35.6195263 79.4092105 35.6192632 80.0323684 35.619 80.6555263 35.6150526 81.2786842 35.6205789 81.7755263 35.6253158 82.1228947 35.3937368 82.3628947 34.9729474 82.5039474 34.7261053 82.5694737 34.4566316 82.5857895 34.1774211 82.6344737 33.3292632 82.0281579 32.5963684 81.2386842 32.5721579 80.605 32.5529474 79.97 32.5724211 79.3357895 32.5650526 79.1597368 32.5626842 79.1021053 32.6258421 79.1055263 32.799 79.1142105 33.2324211 79.1084211 33.6666316 79.1084211 34.1000526M82.3181579 36.5116316C82.9676316 37.5508421 83.5944737 38.5545263 84.2584211 39.6176842 83.7468421 39.6176842 83.3076316 39.6200526 82.8681579 39.6163684 82.7305263 39.6150526 82.6984211 39.4853158 82.6415789 39.3963684 82.1876316 38.684 81.7147368 37.9821579 81.2963158 37.2495263 81.0815789 36.8732105 80.8378947 36.7037368 80.4 36.7571579 80.0602632 36.7984737 79.7113158 36.7624211 79.3665789 36.7663684 79.1152632 36.7692632 79.1102632 36.7729474 79.1094737 37.0311053 79.1065789 37.7647895 79.1084211 38.4984737 79.1081579 39.2321579 79.1081579 39.3097895 79.1052632 39.3876842 79.1073684 39.4655789 79.1105263 39.5805789 79.0497368 39.6205789 78.9423684 39.6200526 78.62 39.6182105 78.2973684 39.6168947 77.9747368 39.6208699 77.8505263 39.6221579 77.7873684 39.5768947 77.795 39.4466316 77.7992105 39.3692632 77.795 39.2913684 77.795 39.2134737L77.795 31.8103158C77.795 31.7655789 77.7942105 31.7211053 77.7952632 31.6766316 77.8013158 31.4261053 77.8015789 31.4205789 78.0584211 31.4200526 79.1371053 31.4182105 80.2160526 31.4218947 81.295 31.4184595 82.6931579 31.414 83.6413158 32.4661053 83.8528947 33.5795263 84.0360526 34.5408421 83.7778947 35.3832105 83.06 36.0682105 82.8557895 36.2624211 82.6089474 36.3892632 82.3181579 36.5116316M106.332658 36.6617105C106.332658 36.5169737 106.318711 36.3711842 106.335553 36.2285526 106.385553 35.8003947 106.188974 35.4793421 105.9095 35.1882895 105.722132 34.9938158 105.507132 34.8385526 105.262132 34.7261842 104.695816 34.4664474 104.157395 34.5264474 103.655816 34.8843421 102.811342 35.4875 102.568974 36.8151316 103.128974 37.7340789 103.790553 38.8203947 105.206342 38.9417105 106.045816 37.9840789 106.235553 37.7677632 106.3545 37.5277632 106.335026 37.2282895 106.322921 37.0401316 106.332658 36.8506579 106.332658 36.6617105M106.501342 38.6651316C106.428184 38.6622368 106.407395 38.7217105 106.375289 38.7625 105.318711 40.1067105 103.2395 40.0506579 102.161342 38.6240789 101.220026 37.3790789 101.305289 35.4575 102.350816 34.3027632 103.365816 33.1822368 105.110816 33.2043421 106.091342 34.3493421 106.147132 34.4140789 106.182395 34.5014474 106.292658 34.5372368 106.360553 34.4530263 106.330816 34.3506579 106.331079 34.2588158 106.333711 33.3693421 106.332658 32.4798684 106.332921 31.5903947 106.332921 31.5125 106.334763 31.4348684 106.334237 31.3569737 106.333447 31.2422368 106.394763 31.2035526 106.502658 31.2043421 106.814237 31.2067105 107.126079 31.2088158 107.437132 31.2032895 107.585816 31.2003947 107.634763 31.2690789 107.625816 31.4059211 107.621079 31.4835526 107.625289 31.5617105 107.625289 31.6393421 107.625289 33.6964474 107.625289 35.7535526 107.625553 37.8106579 107.625553 37.9327632 107.627921 38.0551316 107.631079 38.1775 107.634763 38.3225 107.683711 38.4496053 107.834237 38.4867105 107.982132 38.5227632 107.988974 38.6188158 107.987132 38.7369737 107.983711 38.9590789 107.974763 39.1825 107.9895 39.4038158 108.001342 39.5809211 107.920553 39.6325 107.763447 39.6509211 107.6195 39.6680263 107.475026 39.6919737 107.331868 39.6725 106.813447 39.6025 106.553711 39.3377632 106.539237 38.8882895 106.536868 38.8135526 106.546079 38.7330263 106.501342 38.6651316M112.496579 36.1438947C113.029211 36.1438947 113.562105 36.1428421 114.094737 36.1446842 114.218684 36.1449474 114.300789 36.1438947 114.274737 35.9652105 114.149474 35.1107368 113.4 34.4383684 112.530789 34.4188947 111.624737 34.3986316 110.858684 35.0181053 110.704737 35.8946842 110.662368 36.1365263 110.662368 36.1415263 110.898421 36.1431053 111.431053 36.1462632 111.963947 36.1441579 112.496579 36.1438947M110.735 37.0465263C110.719737 37.9915263 111.580263 38.8104737 112.559737 38.7804737 113.16 38.7617895 113.662895 38.5394211 114.007632 38.0265263 114.067105 37.9381053 114.113947 37.8620526 114.241842 37.9023158 114.546842 37.9973158 114.854211 38.0854737 115.176316 38.181 115.038684 38.5346842 114.813421 38.7925789 114.548684 39.0146842 112.982895 40.3278421 109.991053 39.9015263 109.420263 37.3196842 109.049474 35.6444211 109.972105 34.0149474 111.586579 33.5946842 113.391053 33.1249474 115.077632 34.0649474 115.482105 35.8204737 115.549737 36.1133684 115.589474 36.4112632 115.568158 36.7131053 115.546316 37.0188947 115.543947 37.021 115.233947 37.0212632 113.854474 37.0220526 112.475 37.0212632 111.095789 37.0225789 110.975 37.0225789 110.851579 37.0046842 110.735 37.0465263M87.8746053 36.1436316C88.4082895 36.1436316 88.9419737 36.1465263 89.4756579 36.1423158 89.6725 36.1404737 89.6896053 36.1131053 89.6585526 35.9312632 89.5127632 35.0778421 88.7722368 34.4362632 87.9135526 34.4188947 87.0188158 34.401 86.2682895 34.9986316 86.0919737 35.8699474 86.0427632 36.1123158 86.0617105 36.1412632 86.3069737 36.1428421 86.8293421 36.1462632 87.3522368 36.1438947 87.8746053 36.1436316M86.0985526 37.0596842C86.1725 37.7628421 86.5009211 38.3086316 87.1453947 38.6104737 87.7882895 38.9112632 88.4230263 38.8312632 89.0127632 38.4325789 89.1717105 38.3252105 89.3032895 38.1886316 89.3972368 38.0220526 89.4622368 37.9067895 89.5361842 37.8696842 89.6685526 37.9138947 89.9001316 37.991 90.1388158 38.0465263 90.3717105 38.1194211 90.5796053 38.1841579 90.5825 38.1954737 90.4651316 38.3938947 90.2206579 38.8065263 89.8751316 39.1115263 89.4580263 39.3425789 88.3496053 39.9567895 86.8438158 39.8567895 85.8759211 39.0607368 84.8440789 38.2120526 84.5303947 37.0870526 84.8314474 35.8212632 85.1277632 34.5746842 85.9446053 33.7928421 87.2164474 33.5446842 88.2185526 33.3488947 89.1472368 33.5346842 89.9288158 34.2244211 90.7093421 34.9136316 91.0032895 35.8046842 90.9453947 36.8283684 90.9375 36.9667895 90.8880263 37.0336316 90.7440789 37.0225789 90.6667105 37.0162632 90.5885526 37.0215263 90.5109211 37.0215263 89.1646053 37.0215263 87.8185526 37.0207368 86.4727632 37.0231053 86.3535526 37.0233684 86.2298684 36.9946842 86.0985526 37.0596842M135.933316 37.4488684C135.933316 37.3388684 135.933579 37.2833421 135.933316 37.2278158 135.930684 36.9225526 135.931474 36.9204474 135.647 36.8354474 135.184632 36.6970263 134.712526 36.6404474 134.231211 36.6867632 133.916474 36.7170263 133.623316 36.8133421 133.369895 37.0093947 132.982263 37.3093947 132.883316 37.8075526 133.129895 38.2322895 133.302789 38.5299211 133.572 38.7015 133.904105 38.7551842 134.453316 38.8438684 134.968053 38.7328158 135.419105 38.4030789 135.754632 38.1578158 136.014632 37.8591316 135.933316 37.4488684M136.079632 38.6859737C135.633053 39.1893947 135.135158 39.5072895 134.532 39.6491316 133.988053 39.7775526 133.452 39.7709737 132.929632 39.5517632 132.121474 39.2125526 131.663579 38.3801842 131.814895 37.5254474 131.906211 37.0091316 132.206474 36.6367632 132.637 36.3638684 133.029368 36.1151842 133.466474 35.9867632 133.927263 35.9536053 134.530158 35.9101842 135.128053 35.9399211 135.708579 36.1307105 135.762 36.1483421 135.815947 36.1604474 135.872263 36.1415 136.102 35.1599211 135.548316 34.4307105 134.555684 34.3951842 134.004368 34.3751842 133.501474 34.5270263 133.023579 34.7841316 132.896474 34.8525526 132.773579 34.9293947 132.651737 35.0070263 132.565421 35.0622895 132.511474 35.0462368 132.471474 34.9515 132.436737 34.8696579 132.388579 34.7936053 132.353316 34.7122895 132.125421 34.1867632 132.015947 34.3149211 132.600684 33.9880789 133.340421 33.5743947 134.138579 33.4183421 134.980421 33.4928158 136.362526 33.6151842 137.185158 34.4959737 137.208053 35.8862368 137.219368 36.5865 137.210421 37.2872895 137.210421 37.9878158 137.210684 38.2117632 137.186737 38.4454474 137.484105 38.5201842 137.563316 38.5404474 137.560158 38.6201842 137.560421 38.6867632 137.561211 38.9428158 137.558316 39.1983421 137.561499 39.4541316 137.562526 39.5578158 137.530947 39.6149211 137.418579 39.6362368 137.230947 39.6707105 137.043316 39.6938684 136.854632 39.6691316 136.422526 39.6120263 136.208316 39.4022895 136.127263 38.9693947 136.113316 38.8933421 136.101737 38.8170263 136.079632 38.6859737M118.193526 34.6656842C118.331158 34.6096316 118.361158 34.5188421 118.419053 34.4548947 119.163 33.6383158 120.087211 33.3488421 121.162737 33.5393684 121.659316 33.6275263 121.993526 33.9425263 122.200895 34.3946316 122.379579 34.7851579 122.453263 35.2030526 122.457211 35.6259474 122.468526 36.8712105 122.463263 38.1162105 122.461684 39.3614737 122.461421 39.6138421 122.456158 39.6164737 122.201158 39.6193684 121.934053 39.6225263 121.666947 39.6133158 121.400368 39.6225263 121.242474 39.6277895 121.182474 39.5733158 121.186684 39.4125263 121.195105 39.0680526 121.189053 38.7235789 121.189053 38.3788421 121.188789 37.6451579 121.189842 36.9114737 121.188263 36.1777895 121.187737 35.8875263 121.152211 35.6004211 121.060368 35.3243684 120.875368 34.7698947 120.434842 34.5159474 119.860105 34.642 119.172737 34.7930526 118.693526 35.2091053 118.386947 35.8362105 118.320368 35.9727895 118.317474 36.1135789 118.317474 36.2585789 118.318263 37.2809474 118.318526 38.3038421 118.317211 39.3267368 118.316947 39.6162105 118.313789 39.6177895 118.025105 39.6196316 117.758263 39.6217368 117.491158 39.6164737 117.224316 39.6209474 117.100105 39.6227895 117.036684 39.5772632 117.042474 39.4477895 117.045632 39.3814737 117.042211 39.3146316 117.042211 39.2477895 117.042211 37.4801579 117.041947 35.7127895 117.042474 33.9451579 117.042737 33.5798947 116.994579 33.5756842 117.398789 33.5772632 117.599053 33.5780526 117.799316 33.582 117.999579 33.5762105 118.139579 33.5725263 118.199316 33.6246316 118.195632 33.7704211 118.188263 34.0572632 118.193526 34.3446316 118.193526 34.6656842M96.9383947 34.2442105C96.9233947 34.3494737 96.8573421 34.4144737 96.8055 34.4844737 96.6802368 34.6531579 96.6033947 34.9105263 96.4215526 34.97 96.2491842 35.0263158 96.0852368 34.7992105 95.9086579 34.7121053 95.4068158 34.4647368 94.8823421 34.3576316 94.3241842 34.4047368 94.1436579 34.4202632 93.9726053 34.4647368 93.8162895 34.5534211 93.5510263 34.7031579 93.4197105 34.9360526 93.4244474 35.24 93.4294474 35.5344737 93.6044474 35.7044737 93.8591842 35.8134211 94.1573421 35.9407895 94.4726053 36.0089474 94.7849737 36.0871053 95.2270789 36.1978947 95.6712895 36.3015789 96.0918158 36.4826316 96.1223421 36.4960526 96.1544474 36.5063158 96.1847105 36.5197368 97.3202368 37.0218421 97.4881316 38.4352632 96.5036579 39.2023684 96.0455 39.5589474 95.5078684 39.6994737 94.9462895 39.7247368 93.9591842 39.7689474 93.0226053 39.5660526 92.1662895 39.0536842 91.9165526 38.9044737 91.9170789 38.8976316 92.0694474 38.6536842 92.1926053 38.4563158 92.2833947 38.1755263 92.4623421 38.0939474 92.6373421 38.0142105 92.8355 38.2752632 93.0305 38.3736842 93.6618158 38.6926316 94.3173421 38.8584211 95.0276053 38.7673684 95.2186579 38.7431579 95.3957632 38.6852632 95.5591842 38.5852632 95.9739211 38.3321053 96.0768158 37.6644737 95.5083947 37.4021053 95.1933947 37.2563158 94.8610263 37.1686842 94.5273421 37.0836842 94.0855 36.9715789 93.6431316 36.8636842 93.2183947 36.6931579 93.0631316 36.6305263 92.9141842 36.5578947 92.7720789 36.4694737 92.4462895 36.2671053 92.2639211 35.9692105 92.2328684 35.5936842 92.1752368 34.8978947 92.4126053 34.3257895 92.9973421 33.9210526 93.5868158 33.5131579 94.2555 33.4360526 94.9452368 33.4915789 95.6223421 33.5460526 96.2462895 33.7713158 96.8157632 34.1434211 96.8612895 34.1731579 96.9005 34.2128947 96.9383947 34.2442105M127.437974 38.3182895C127.517184 38.5975 127.591395 38.8632895 127.668763 39.1285526 127.706921 39.2601316 127.660342 39.3327632 127.533763 39.3846053 127.002184 39.6011842 126.459026 39.7417105 125.877711 39.6935526 125.156132 39.6338158 124.6785 39.1572368 124.6685 38.4325 124.6535 37.3314474 124.662711 36.2298684 124.661658 35.1285526 124.661395 35.0617105 124.661658 34.9951316 124.661395 34.9282895 124.660079 34.5638158 124.660079 34.5656579 124.299553 34.5617105 123.800079 34.5561842 123.863763 34.6282895 123.862184 34.1156579 123.861658 33.9503947 123.792711 33.7477632 123.897447 33.6290789 124.007184 33.5046053 124.214289 33.5867105 124.378237 33.5790789 124.654816 33.5664474 124.658763 33.5711842 124.660605 33.3003947 124.663763 32.8106579 124.667184 32.3211842 124.6585 31.8319737 124.655868 31.6598684 124.711395 31.5948684 124.886921 31.6022368 125.153237 31.6138158 125.420868 31.6022368 125.688237 31.6061842 125.927447 31.6093421 125.932184 31.6127632 125.934289 31.8443421 125.937974 32.2782895 125.935342 32.7122368 125.935342 33.1461842 125.935342 33.2240789 125.940342 33.3019737 125.935342 33.3796053 125.926921 33.5198684 125.985342 33.5806579 126.129026 33.5780263 126.4185 33.5730263 126.707974 33.5738158 126.997184 33.5785526 127.252447 33.5830263 127.262447 33.5872368 127.256658 33.8443421 127.251395 34.0740789 127.358237 34.3640789 127.199289 34.5175 127.055605 34.6559211 126.772974 34.5443421 126.552711 34.5627632 126.356658 34.5793421 126.111395 34.4751316 125.976921 34.6196053 125.8585 34.7472368 125.937974 34.9819737 125.937184 35.1688158 125.933237 36.0477632 125.933237 36.9267105 125.936132 37.8053947 125.938237 38.3806579 126.213763 38.5980263 126.790079 38.5106579 127.010868 38.4772368 127.207184 38.3696053 127.437974 38.3182895M141.409263 38.4257105C141.504263 38.7212368 141.540316 39.0165 141.580842 39.3107105 141.593211 39.4017632 141.553737 39.4570263 141.467421 39.4867632 140.934789 39.6717632 140.389 39.7736053 139.830579 39.6565 139.296368 39.5441316 138.967947 39.1636053 138.892684 38.6170263 138.870579 38.4525526 138.857947 38.2851842 138.857684 38.1191316 138.855316 35.9304474 138.856105 33.7415 138.856105 31.5530789 138.856105 31.5086053 138.859789 31.4636053 138.855579 31.4196579 138.840579 31.2659737 138.898211 31.1970263 139.062421 31.2022895 139.351368 31.2115 139.640579 31.2130789 139.929263 31.2017632 140.112684 31.1943947 140.163737 31.2772895 140.149789 31.4404474 140.142947 31.5175526 140.148737 31.5957105 140.148737 31.6736053 140.148737 33.6288684 140.148474 35.5843947 140.149 37.5399211 140.149 37.6730789 140.147158 37.8067632 140.158474 37.9393947 140.194789 38.3607105 140.493211 38.6009737 140.911632 38.5399211 141.074 38.5162368 141.232421 38.4670263 141.409263 38.4257105M148.189947 4.86342105C148.202316 3.58947368 147.196789 2.55447368 145.938895 2.54706818 144.696263 2.54 143.658895 3.55473684 143.644684 4.79210526 143.629684 6.06973684 144.630211 7.10947368 145.885211 7.12026316 147.164947 7.13157895 148.177316 6.14 148.189947 4.86342105M148.680737 4.87447368C148.729158 6.38578947 147.361789 7.64342105 145.835737 7.60078947 144.464421 7.56236842 143.127579 6.41921053 143.151526 4.77105263 143.173105 3.29657895 144.404421 2.04184211 145.957053 2.05473684 147.522579 2.06763158 148.766526 3.41078947 148.680737 4.87447368M98.6440526 36.6187895C98.6440526 35.7298421 98.6437895 34.8406316 98.6440526 33.9516842 98.6443158 33.5787895 98.6448421 33.5785263 99.0316842 33.5774737 99.2206316 33.576911 99.4095789 33.5764211 99.5987895 33.5777368 99.9322105 33.5798421 99.9340526 33.5806316 99.9348421 33.9024737 99.9364211 34.4469474 99.9353684 34.9914211 99.9353684 35.5361579L99.9353684 39.2032632C99.9353684 39.2811579 99.9327368 39.3590526 99.9353684 39.4366842 99.9395789 39.5558947 99.9003684 39.6235263 99.7651053 39.6214211 99.4537895 39.6164211 99.1424737 39.6151053 98.8311579 39.6219474 98.6808947 39.6251053 98.6406316 39.5548421 98.6427368 39.4193158 98.6474737 39.0858947 98.6440526 38.7524737 98.6440526 38.4193158L98.6440526 36.6187895zM130.264632 36.5864211C130.264632 37.5087895 130.265947 38.4314211 130.263842 39.3540526 130.263053 39.613 130.258579 39.6158947 130.009632 39.6193158 129.753842 39.6227368 129.498053 39.6222105 129.242263 39.6195789 128.977526 39.6169474 128.974105 39.6148421 128.973053 39.3353684 128.970421 38.7574737 128.972263 38.1795789 128.972263 37.6014211L128.972263 33.9672105C128.972 33.5527368 128.942526 33.5769474 129.377 33.5774737 129.554895 33.5774737 129.732789 33.5766842 129.910684 33.5774737 130.262526 33.5793158 130.264105 33.5795789 130.264368 33.9187895 130.265158 34.808 130.264632 35.6972105 130.264632 36.5864211M98.6450789 31.9004737C98.6450789 31.7225789 98.6469211 31.5449474 98.6445526 31.3673158 98.6429737 31.2575789 98.6906053 31.2044211 98.8027105 31.2049474 99.1248158 31.2065263 99.4471842 31.2081053 99.7692895 31.2041579 99.9074474 31.2023158 99.9361316 31.2775789 99.9356153 31.3933684 99.9335 31.7378421 99.9335 32.0820526 99.9356153 32.4265263 99.9363947 32.5491579 99.8906053 32.6088947 99.7595526 32.6070526 99.4485 32.6020526 99.1371842 32.6028421 98.8258684 32.6070526 98.7016579 32.6083684 98.6403421 32.5638947 98.6435 32.4336316 98.6479737 32.2562632 98.6445526 32.0783684 98.6445526 31.9004737L98.6450789 31.9004737zM130.263579 31.9135789C130.263579 32.0912105 130.261737 32.2691053 130.264105 32.4467368 130.265684 32.5596316 130.211737 32.6059565 130.102 32.6054211 129.779632 32.6038421 129.457263 32.6035789 129.134895 32.6059565 129.023316 32.6067368 128.973053 32.5562105 128.973315 32.4462105 128.974368 32.0796316 128.973842 31.7127895 128.974105 31.3464737 128.974368 31.2506842 129.023053 31.2059446 129.118316 31.2062105 129.452 31.2064737 129.785684 31.207 130.118842 31.2059446 130.240947 31.2054211 130.265158 31.2793684 130.264368 31.3801579 130.262789 31.5577895 130.263842 31.7356842 130.263579 31.9135789"/>
    <path fill="#949DB4" d="M145.514156,4.28223684 C145.513895,4.75855263 145.538105,4.78039474 145.987579,4.71302632 C146.254684,4.67302632 146.412053,4.51828947 146.421,4.28644737 C146.429684,4.07328947 146.292842,3.92881579 146.025474,3.86881579 C145.576789,3.76776316 145.514156,3.81828947 145.514156,4.28223684 M146.653368,4.99828947 C147.050474,5.13565789 147.180737,5.45513158 147.177842,5.85592105 C147.177053,5.95592105 147.163632,6.05907895 147.183632,6.15513158 C147.225211,6.35407895 147.121789,6.37539474 146.964421,6.37171053 C146.334684,6.35802632 146.469158,6.4475 146.398368,5.87723684 C146.339421,5.40065789 146.158632,5.25118421 145.669684,5.29486842 C145.558368,5.30486842 145.512053,5.34618421 145.513632,5.4575 C145.517316,5.69092105 145.508105,5.92434211 145.516526,6.1575 C145.521789,6.31118421 145.473895,6.36855263 145.309684,6.37434211 C144.706789,6.39618421 144.707053,6.40276316 144.707053,5.78776316 C144.707053,5.04328947 144.705474,4.29855263 144.707579,3.55407895 C144.708105,3.30144737 144.712579,3.30092105 144.968895,3.30171053 C145.346789,3.30276316 145.724947,3.30644737 146.102842,3.30565789 C146.271,3.30539474 146.434947,3.32671053 146.595737,3.37671053 C147.011789,3.50592105 147.212842,3.78618421 147.213105,4.21723684 C147.213105,4.61065789 147.010474,4.83486842 146.645737,4.93592105 C146.638895,4.93776316 146.629421,4.94907895 146.630211,4.95460526 C146.631789,4.96486842 146.639947,4.97434211 146.653368,4.99828947"/>
  </g>
</svg>
