<svg xmlns="http://www.w3.org/2000/svg" width="275" height="100" viewBox="0 0 275 100">
  <g fill="#949DB4" transform="translate(64 28)">
    <polygon points="26.249 0 0 19.556 10.748 19.556 10.748 43.886 26.249 32.27"/>
    <g transform="translate(33.45 14.748)">
      <path d="M18.1514076 11.1265815L18.1514076 11.0785074C18.1514076 9.49817408 16.9957217 8.17695185 15.4096621 8.17695185 13.7770977 8.17695185 12.7388977 9.47535925 12.7388977 11.0304333L12.7388977 11.0785074C12.7388977 12.6352111 13.8750026 13.9588778 15.456167 13.9588778 17.0903631 13.9588778 18.1514076 12.6584333 18.1514076 11.1265815M8.3931434 11.1265815L8.3931434 11.0785074C8.3931434 7.44484075 11.3710845 4.39987777 15.456167 4.39987777 19.5453289 4.39987777 22.5000174 7.39798888 22.5000174 11.0304333L22.5000174 11.0785074C22.5000174 14.7121741 19.5212605 17.7575444 15.4096621 17.7575444 11.3470162 17.7575444 8.3931434 14.761063 8.3931434 11.1265815M33.2859161 11.1265815L33.2859161 11.0785074C33.2859161 9.49817408 32.1285985 8.17695185 30.5449866 8.17695185 28.9148697 8.17695185 27.8754459 9.47535925 27.8754459 11.0304333L27.8754459 11.0785074C27.8754459 12.6352111 29.010735 13.9588778 30.593531 13.9588778 32.222832 13.9588778 33.2859161 12.6584333 33.2859161 11.1265815M23.5292838 11.1265815L23.5292838 11.0785074C23.5292838 7.44484075 26.5023295 4.39987777 30.593531 4.39987777 34.6814692 4.39987777 37.6361579 7.39798888 37.6361579 11.0304333L37.6361579 11.0785074C37.6361579 14.7121741 34.6574008 17.7575444 30.5449866 17.7575444 26.4811168 17.7575444 23.5292838 14.761063 23.5292838 11.1265815M80.2506988 11.1265815L80.2506988 11.0785074C80.2506988 9.49817408 79.0929731 8.17695185 77.5093612 8.17695185 75.8792444 8.17695185 74.8414523 9.47535925 74.8414523 11.0304333L74.8414523 11.0785074C74.8414523 12.6352111 75.9759255 13.9588778 77.5570899 13.9588778 79.1872068 13.9588778 80.2506988 12.6584333 80.2506988 11.1265815M70.4940663 11.1265815L70.4940663 11.0785074C70.4940663 7.44484075 73.4707835 4.39987777 77.5570899 4.39987777 81.6474756 4.39987777 84.6001245 7.39798888 84.6001245 11.0304333L84.6001245 11.0785074C84.6001245 14.7121741 81.6229994 17.7575444 77.5093612 17.7575444 73.4463073 17.7575444 70.4940663 14.761063 70.4940663 11.1265815M85.6924987 11.1038889L85.6924987 11.0558148C85.6924987 7.44537037 88.4823806 4.4 92.523406 4.4 95.14481 4.4 96.8932286 5.53503704 97.9799731 7.23229629L94.9567509 9.50033333C94.3183294 8.67085185 93.6342189 8.15466667 92.5699108 8.15466667 91.1074562 8.15466667 90.0419243 9.45266667 90.0419243 11.0077407L90.0419243 11.0558148C90.0419243 12.707037 91.0842037 13.9598148 92.5923473 13.9598148 93.6803156 13.9598148 94.3660579 13.4615556 95.0489448 12.6357407L98.0497304 14.8088518C96.8699762 16.5545926 95.1672466 17.7352593 92.380628 17.7352593 88.5056331 17.7352593 85.6924987 14.7143333 85.6924987 11.1038889"/>
      <polygon points="113.689 4.814 107.775 4.814 104.165 7.513 104.165 .326 99.678 .326 99.678 17.437 104.165 17.437 104.165 12.17 104.881 11.61 108.954 17.437 113.641 17.437 107.938 9.227 113.689 4.935"/>
      <polygon points="9.664 4.81 .141 4.81 .141 17.437 4.625 17.437 4.629 17.43 4.629 8.686 9.664 4.927"/>
      <path d="M48.4419638 15.800237L50.0708567 13.2168667C51.5386146 14.1840518 53.1691393 14.6289407 54.4912636 14.6289407 55.2732792 14.6289407 55.6514369 14.333163 55.6514369 13.8886815L55.6514369 13.8406074C55.6514369 13.321163 54.968142 12.9166074 53.6186861 12.5593111 51.1237426 11.8980889 49.0363282 10.8070518 49.0363282 8.67101481L49.0363282 8.6262C49.0363282 5.91001481 51.204514 4.40016296 54.1616504 4.40016296 56.027147 4.40016296 57.7213098 4.87112592 59.1821327 5.7332L57.7645512 8.53290371C56.4970905 7.82116296 55.3499713 7.46916296 54.1135139 7.46916296 53.4302192 7.46916296 53.0724582 7.77390371 53.0724582 8.15442223L53.0724582 8.20127408C53.0724582 8.69505185 53.7675832 9.06049629 55.0905233 9.46505185 57.6189175 10.1719037 59.6891985 11.2674222 59.6891985 13.3904222L59.6891985 13.4384963C59.6891985 16.2459407 57.5875064 17.7122 54.4696429 17.7122 52.3169587 17.7122 50.1899744 17.0733852 48.4419638 15.800237M44.5099801 4.10792963C44.5099801 3.2813 44.9570792 2.90281852 45.7839678 2.90281852L47.4618133 2.90281852 47.4618133.398077777C46.7768869.189077777 45.9030855.0468925925 44.5552611.0468925925 43.018562.0468925925 41.9803619.373225925 41.201202 1.15748518 40.4452944 1.91078148 40.1189448 2.99652223 40.1189448 4.45911481L40.1189448 4.80744815 38.4871962 4.80744815 38.4871962 8.47411481 40.1189448 8.47411481 40.1189448 17.4370778 44.6021739 17.4370778 44.6021739 8.47411481 47.4618133 8.47411481 47.4618133 4.81396667 44.5099801 4.81396667 44.5099801 4.10792963zM67.8587924 13.9569222C67.0331277 13.9569222 66.5839888 13.5409593 66.6349811 12.6809222L66.6349811 8.47403333 69.490541 8.47403333 69.490541 4.80736667 66.6349811 4.80736667 66.6349811 1.54810741 62.1476725 1.54810741 62.1476725 4.80736667 60.515924 4.80736667 60.515924 8.47403333 62.1476725 8.47403333 62.1476725 13.5535889C62.1476725 16.5455889 63.630116 17.7796259 66.3216853 17.7796259 67.576092 17.7796259 68.6387682 17.4716259 69.490541 17.0259222L69.490541 13.9569222 67.8587924 13.9569222z"/>
    </g>
  </g>
</svg>
