<svg xmlns="http://www.w3.org/2000/svg" xmlns:xlink="http://www.w3.org/1999/xlink" width="275" height="100" viewBox="0 0 275 100">
  <defs>
    <polygon id="seldin-company-a" points="0 .024 42.484 .024 42.484 42.477 0 42.477"/>
  </defs>
  <g fill="none" fill-rule="evenodd" transform="translate(70 28)">
    <g transform="translate(0 .2)">
      <mask id="seldin-company-b" fill="#fff">
        <use xlink:href="#seldin-company-a"/>
      </mask>
      <path fill="#949DB4" d="M21.6529445,7.20480756 C18.0904671,7.34999464 14.3681941,7.92894496 11.267124,10.5820927 C9.8226699,11.8179808 8.9857091,13.3388492 8.79310024,15.196165 C8.46406947,18.3709524 10.0869733,20.4287432 12.7637196,21.8026265 C15.1680715,23.0364919 17.8216688,23.4662097 20.4195285,24.0662863 C22.4456299,24.5346607 24.5488198,24.7326635 26.3989437,25.8116777 C27.3995209,26.3953477 27.6022434,27.493915 26.8599014,28.3508783 C26.3823123,28.9021847 25.7718973,29.2336877 25.0983282,29.4485465 C23.0364919,30.1061586 20.9589233,29.9629943 18.8705667,29.5631679 C16.1828078,29.0487202 13.6867588,28.0387036 11.3275812,26.6830249 C10.7632394,26.3584891 10.4694941,26.3973705 10.1159658,26.9790177 C9.35519448,28.2301887 8.5371125,29.4494455 7.68352037,30.6394851 C7.39854016,31.037064 7.47203269,31.1242661 7.84443979,31.3589028 C9.18685838,32.2046288 10.5928806,32.9359581 12.0703726,33.4834437 C16.0564996,34.9604863 20.141066,35.6118054 24.4234105,35.1007289 C27.8287892,34.6943849 30.8729981,33.6580728 33.2694838,31.1301096 C35.423242,28.8581341 35.8021668,24.6733301 33.2258828,22.2840363 C31.293726,20.4916726 28.9381443,19.8154065 26.541209,19.1326227 C23.8343466,18.361513 21.0155597,18.0396741 18.3464549,17.1105667 C17.3768929,16.7732203 16.294058,16.3360858 16.267313,15.2361701 C16.2410175,14.1576054 17.2521578,13.5559556 18.2113814,13.201753 C20.2774879,12.4385095 22.3914657,12.4821106 24.5202768,12.952283 C26.7607876,13.4471776 28.8518411,14.2863859 30.7905156,15.5189028 C31.0438064,15.6798222 31.3429457,16.0104263 31.7207468,15.5132841 C32.5460207,14.4277523 33.3865774,13.3379502 34.3482733,12.3773781 C35.0739839,11.6525665 34.8063093,11.3579221 34.1250987,10.8899972 C30.4590126,8.37147338 26.3717492,7.28998697 21.6529445,7.20480756 M42.4843683,0.0456912272 L42.4843683,42.4774011 L0.0216432129,42.4774011 C0.0216432129,28.632712 0.0299588814,14.7882477 5.18338639e-05,0.943783425 C-0.00173055804,0.174921211 0.151097944,0.0223174563 0.920409654,0.0238787115 C14.7749876,0.0537821479 28.6295656,0.0456912272 42.4843683,0.0456912272" mask="url(#seldin-company-b)"/>
    </g>
    <path fill="#949DB4" d="M134.823439 21.7991204C132.793742 22.1850124 131.440535 21.412779 130.263981 19.6824457 128.857059 17.6134174 127.095711 15.7853189 125.387403 13.7317982 125.387403 16.1536805 125.339307 18.4804944 125.4119 20.8034877 125.43932 21.6818021 125.15816 21.8326078 124.354687 21.819123 121.793236 21.7761961 121.792787 21.8101331 121.792787 19.1951924 121.792787 15.7208162 121.816385 12.2462153 121.773908 8.77251334 121.764693 8.02432793 122.037537 7.98499706 122.693126 7.83823675 124.899475 7.34446584 125.694633 9.05839254 126.753195 10.2882125 128.318339 12.1066469 129.772232 14.0205992 131.453571 16.1181703 131.453571 13.5767223 131.505038 11.2885649 131.428624 9.00490257 131.397159 8.06703001 131.643932 7.75328208 132.582254 7.86250951 133.320101 7.94836317 134.075928 7.87959035 134.823439 7.87959035L134.823439 21.7991204zM134.823439 25.6157875C133.450455 27.3856764 132.41684 29.3731212 131.239836 31.2670709 130.689428 32.1523524 131.079141 33.2279954 131.011492 34.2150877 130.980926 34.6591894 131.103863 35.0612632 130.37141 35.0738491 129.611762 35.0871092 129.576028 34.7036894 129.661432 34.1851963 130.033614 31.9231097 129.15957 30.0621979 127.870866 28.296804 127.34136 27.5715428 126.959514 26.7393017 126.493612 25.9659446 126.305273 25.6533204 125.718681 25.3036128 126.24504 25.0170594 126.617672 24.8143369 127.248315 24.7226398 127.663199 25.4114918 128.483753 26.7741377 129.366787 28.0997002 130.122614 29.5028007 130.191162 29.6300079 130.308256 29.7313692 130.449398 29.9006043 131.226575 28.6521303 132.043983 27.4677094 132.720699 26.207998 133.199412 25.3164234 133.722624 24.7051094 134.823439 24.9422184L134.823439 25.6157875zM68.3213526 14.8452213C68.3213526 12.7896779 68.3442768 10.7339098 68.3074182 8.67904074 68.2964056 8.05941106 68.4523805 7.85848653 69.1016769 7.86442196 72.5418915 7.8969184 75.983005 7.89377193 79.4232195 7.86657745 80.0345335 7.861633 80.2410767 7.99805491 80.2471449 8.65341949 80.269395 11.0231603 80.2979379 11.0229355 77.9906771 11.0229355 76.0832425 11.0229355 74.173111 11.0845164 72.2697219 10.998438 71.2248694 10.9510162 71.4626525 11.5868277 71.4734404 12.1354371 71.4837788 12.6647182 71.1949779 13.3272747 72.2499441 13.2906408 74.4165128 13.2151255 76.5878013 13.2901913 78.7563928 13.2537821 79.3784947 13.2436685 79.5666086 13.4043632 79.5726768 14.0487151 79.5938031 16.411264 79.6209976 16.4110392 77.3096912 16.4110392 75.5892468 16.4110392 73.8676787 16.4523928 72.1490323 16.3955316 71.1095737 16.3611452 71.4875995 17.0821361 71.4893975 17.5316317 71.4911955 17.9793293 71.1039551 18.6929036 72.1452116 18.6715525 74.5751848 18.6225575 77.0069559 18.677396 79.4376034 18.6416611 80.0700437 18.6322217 80.2401778 18.8104467 80.2460212 19.4440107 80.2662485 21.7993676 80.2923192 21.7991429 77.9765179 21.7991429 75.0592915 21.7991429 72.1420651 21.7741959 69.225513 21.816898 68.4953074 21.8274611 68.2838197 21.6362007 68.303148 20.899028 68.355739 18.8821412 68.3213526 16.8632318 68.3213526 14.8452213M102.89498 18.6560674C103.343352 18.6560674 103.792174 18.6675296 104.240321 18.6540447 105.976498 18.601229 107.102484 17.4995153 107.60547 15.3734011 107.909553 14.0887427 106.991908 12.1972652 105.820073 11.5477441 104.54418 10.8404628 103.169622 11.0874606 101.82136 11.0103721 101.123743 10.9705918 100.845505 11.1294884 100.878318 11.9039694 100.945293 13.4695625 100.898321 15.0401001 100.898321 16.608615 100.898321 18.6560674 100.898321 18.6560674 102.89498 18.6560674M97.7529756 14.8331074C97.7529756 12.7795868 97.7770236 10.7253919 97.7388165 8.67254552 97.7269049 8.04460018 97.8970389 7.83918069 98.5389187 7.86772366 100.947316 7.97492836 103.359309 7.74860733 105.770179 8.08527953 107.960122 8.39093653 110.419312 10.7507884 110.804754 12.9411804 111.064338 14.414627 111.154237 15.8629018 110.688335 17.2806109 109.736303 20.1769358 107.646598 21.5861045 104.689592 21.7742184 102.642813 21.9043473 100.580528 21.7717461 98.5263328 21.8151225 97.8662485 21.8288321 97.7293771 21.6036348 97.7397155 20.993894 97.7747761 18.9408229 97.7529756 16.8868528 97.7529756 14.8331074M58.4921425 7.91370706C60.7879413 7.65794407 62.7670704 8.32319755 64.5057193 9.77709105 64.9062199 10.1117405 64.974768 10.3708747 64.5106638 10.6864206 64.3587343 10.7900294 64.2434386 10.9469033 64.109489 11.0777066 63.6017837 11.5737249 63.1644245 12.3207866 62.5641231 12.4895722 62.0289986 12.6401532 61.5621974 11.7658843 60.9765047 11.5004572 59.6262199 10.8891431 58.2235689 10.5430315 56.7647309 11.0801788 56.4599729 11.1923279 56.0165455 11.2631235 55.9684495 11.7434095 55.9106893 12.3183144 56.4172708 12.4320368 56.7485491 12.5266556 58.2775084 12.9633406 59.8224247 13.3478841 61.3711618 13.7117507 63.4799704 14.2075444 65.1150106 15.8322462 65.1759173 17.5439254 65.2541295 19.7451054 63.9582337 20.9875112 62.0499001 21.5120725 58.7802692 22.4110637 55.5823328 22.1795735 52.6869069 20.0671689 52.0050221 19.5695773 52.0045726 19.2843724 52.5491365 18.8252126 53.213491 18.2651411 53.6847871 17.0825182 54.5066898 17.2232103 55.2429636 17.3492938 55.9506944 18.1197293 56.7793395 18.4035857 58.0716394 18.8465637 59.3812448 19.1234529 60.7313048 18.6375482 61.1185453 18.4982046 61.4855584 18.255477 61.5446671 17.8585723 61.6060232 17.4466096 61.2057474 17.2679351 60.8798631 17.0757758 59.6943185 16.3765854 58.3096473 16.3754616 57.0492617 15.951812 55.9960935 15.5976095 54.9346096 15.3135283 53.9243683 14.7687396 51.7604965 13.6018491 51.7548778 10.1564653 54.1897954 8.77786234 55.5319893 8.01776529 56.9791403 7.70266888 58.4921425 7.91370706M83.8234667 14.7948553C83.8234667 12.7390872 83.8409971 10.6830944 83.8120046 8.62777576 83.8041384 8.06658051 83.9322447 7.87666862 84.5424349 7.86161052 87.4187572 7.79126446 87.418083 7.76878968 87.418083 10.621963 87.418083 13.0141785 87.4432548 15.4068436 87.4021259 17.7981601 87.3906638 18.4694818 87.5342776 18.6946791 88.2530211 18.675126 90.2712563 18.6202876 92.2924132 18.6746765 94.3117722 18.6441108 94.8794851 18.6355704 95.0628793 18.7737903 95.074791 19.3779124 95.1224375 21.7995699 95.1476092 21.7991204 92.7576412 21.7991204 90.0647131 21.7991204 87.3711107 21.7757466 84.6786321 21.815527 84.000568 21.8256407 83.7861586 21.6737111 83.8045879 20.9617101 83.8578531 18.9072905 83.8234667 16.8506234 83.8234667 14.7948553M117.973288 14.9289623C117.973288 16.9098894 117.946767 18.8917155 117.987672 20.8719683 118.002055 21.5587976 117.87732 21.826697 117.096322 21.821601 114.378896 21.8039974 114.378671 21.8397323 114.378671 19.1234305 114.378671 15.6845644 114.395528 12.2454736 114.364063 8.80683233 114.357995 8.12090206 114.474863 7.85232844 115.255637 7.85720596 117.973063 7.87457847 117.973288 7.83906832 117.973288 10.5555949L117.973288 14.9289623zM82.3536161 31.3264492C83.4960092 29.336757 84.6287381 27.5228175 85.5854895 25.6205522 85.9756516 24.8442733 86.4995388 24.8793339 87.0854563 24.9631649 87.7221668 25.0541877 87.3978557 25.6254966 87.4014517 25.9596966 87.4311184 28.7247687 87.4131386 31.4902904 87.4232522 34.2555873 87.4248254 34.7412673 87.4378608 35.074793 86.7438396 35.0750179 86.0489194 35.0752425 86.0628538 34.7399188 86.0655508 34.2551378 86.0765634 32.1685792 86.0702705 30.0817959 86.0702705 27.6826132 85.0816049 29.3720424 84.2462173 30.819643 83.388355 32.2535339 83.1476501 32.6556077 83.1062965 33.2383788 82.4131743 33.260404 81.6706076 33.2840026 81.5834054 32.6859487 81.3278672 32.244544 80.5518131 30.9048224 79.78812 29.5581336 78.8808132 27.9714141 78.8808132 30.2222633 78.8565404 32.2389253 78.8949723 34.254014 78.9071087 34.8819594 78.7405706 35.1064824 78.0944206 35.0628814 77.6593089 35.0334394 77.5231117 34.9140983 77.5253592 34.4807846 77.5401926 31.4911894 77.5307532 28.5015942 77.5374956 25.5117742 77.5379451 25.2800593 77.4275939 24.9431623 77.8588849 24.946084 78.3135497 24.9490057 78.7392221 24.8366318 79.0500483 25.4232236 80.0809664 27.3695395 81.1950412 29.2715801 82.3536161 31.3264492M121.118656 32.2370599C121.118656 30.1120695 121.113037 27.99517 121.123375 25.8782705 121.125398 25.443833 120.910539 24.9302843 121.758513 24.9120797 122.664471 24.8927514 122.463546 25.4382143 122.464445 25.92322 122.469165 28.6525573 122.473211 31.3821193 122.457253 34.1114565 122.455455 34.4141918 122.660875 34.8634626 122.275882 35.0016825 121.865493 35.1491171 121.416671 35.1023696 121.077077 34.6755735 119.98323 33.2998922 118.857243 31.9496075 117.753507 30.5817924 117.049372 29.7090967 116.362318 28.8229161 115.501983 27.7326645 115.501983 30.0588042 115.477486 32.1592972 115.516592 34.2586663 115.528504 34.8942531 115.349829 35.1030438 114.710422 35.0628139 114.268343 35.03517 114.144731 34.9016698 114.146754 34.4750985 114.160913 31.48393 114.151923 28.4927616 114.158441 25.5015932 114.158891 25.2703277 114.047416 24.9129787 114.484101 24.9525343 114.774924 24.9788298 115.035856 24.858365 115.329827 25.236166 117.057912 27.4548763 118.911632 29.5746975 120.543301 31.8704962 120.659496 32.0341126 120.787153 32.2343629 121.118656 32.2370599M71.9160138 30.1163397C72.1877339 28.2653168 70.1982664 26.154935 68.5701933 26.2605665 66.7587261 26.3783343 65.1551506 28.0839453 65.1769511 30.1199356 65.1958299 31.9042084 66.9881936 33.9154764 68.6178399 33.9134552 70.1555643 33.9112062 72.025466 32.2008755 71.9160138 30.1163397M68.6059282 35.0450589C66.0078437 35.36038 63.8347572 32.8728714 63.8601537 30.0388017 63.8859997 27.1220248 65.7968055 25.0714259 68.6832415 24.9381504 70.7718228 24.8415089 73.5182408 27.0206635 73.3031572 30.2559081 73.1145938 33.095147 71.3766191 35.0450589 68.6059282 35.0450589M93.2595704 28.2600802C93.2595704 30.3340529 93.2595704 30.3340529 95.3247779 30.3304569 95.5479525 30.3300074 95.7722508 30.3443913 95.9938521 30.3268609 97.5282053 30.2052724 98.2312164 28.6549621 97.6745162 27.43593 97.1901847 26.3760194 96.3273779 26.2589258 95.3126416 26.2778046 93.2600199 26.3160117 93.2595704 26.289042 93.2595704 28.2600802M91.9117579 29.9508579C91.9117579 28.532924 91.9349069 27.1140912 91.900071 25.6970563 91.8863614 25.141255 91.9969373 24.9003254 92.6230847 24.9272951 93.816046 24.9787624 95.0132775 24.9144845 96.2073625 24.9490956 97.8426275 24.9962927 99.368665 26.6347041 99.3252887 28.2468201 99.270675 30.2962952 98.1163703 31.4346428 96.1239811 31.4604888 95.2011666 31.4724005 93.9967432 31.0599883 93.431053 31.6209588 92.8637896 32.1828282 93.2728305 33.3883754 93.2764265 34.3093919 93.278674 34.8851958 93.1269692 35.0634208 92.533635 35.0679665 91.9155786 35.0724107 91.899172 34.7782158 91.9050155 34.3170333 91.92322 32.8620161 91.9117579 31.4063246 91.9117579 29.9508579M104.220655 31.0035766C105.204826 31.0035766 106.05707 30.9882937 106.908414 31.0096447 107.37971 31.0213316 107.529617 30.828498 107.352965 30.4131641 106.901447 29.351905 106.429926 28.2989616 105.885587 27.0585785 105.305288 28.4335855 104.795785 29.6413802 104.220655 31.0035766M101.227239 34.9593625C102.484479 31.8684061 103.727559 28.7902602 104.99581 25.7226776 105.153359 25.34173 105.294051 24.9245981 105.908062 24.9162825 106.464987 24.908641 106.586575 25.2520557 106.732886 25.6031117 108.020466 28.6965404 109.295685 31.7951383 110.597425 34.9476756 109.655731 35.1697265 108.945753 35.189729 108.711116 34.0383461 108.406134 32.541301 107.544226 31.9933659 105.918175 32.058318 104.479115 32.1158534 103.416283 32.2396894 103.155576 33.8587726 102.971732 34.9995924 102.27861 35.2692897 101.227239 34.9593625M56.4099441 35.0451038C54.0856023 35.0451038 52.2649204 33.0828308 52.1129909 30.3534936 51.9576902 27.5636991 53.6410512 25.6479489 55.7536805 25.0337132 57.4363673 24.5442125 59.7346382 25.4569133 60.4448413 26.8215819 60.8100564 27.5232445 60.2666163 27.5571815 59.9402825 27.8378915 59.430105 28.2770487 59.479999 27.7792323 59.3125619 27.5383026 58.6398917 26.5718871 57.13543 26.0284469 55.9674157 26.2976948 54.9216642 26.5388492 53.6698189 28.0844398 53.4949651 29.3502194 53.2308865 31.2625984 54.2447238 33.11025 55.880663 33.6981903 56.9738363 34.0912742 58.7214752 33.6532407 59.2694103 32.6656989 59.6501331 31.9799934 59.9964694 32.1027057 60.493162 32.3557717 61.1912287 32.7117722 60.6576774 33.0722677 60.4634953 33.3750029 59.605633 34.7138256 58.2877119 35.0848842 56.4099441 35.0451038"/>
  </g>
</svg>
